<svg width="770" height="270" viewBox="0 0 770 270" fill="none" xmlns="http://www.w3.org/2000/svg">
<g clip-path="url(#clip0)">
<rect width="770" height="270" fill="url(#paint0_linear)"/>
<path d="M614.625 127.973H659.355C671.795 127.973 681.721 117.712 681.721 105.231V62.5525C681.721 50.407 671.501 41.3183 659.355 39.2661C644.362 36.7948 628.069 36.9204 614.625 39.3074C595.694 42.6583 592.26 49.653 592.26 62.5946V71.7289H637.032V85.3364H575.465C562.44 85.3364 551.047 93.1683 547.487 108.037C543.382 125.083 543.216 135.721 547.487 153.521C550.671 166.757 558.251 176.222 571.276 176.222H586.647V155.784C586.647 140.999 599.422 127.973 614.625 127.973Z" fill="#347AB4"/>
<path d="M586.647 180.479H571.276C557.293 180.479 547.374 171.259 543.347 154.517C539.027 136.516 539.028 124.98 543.347 107.04C545.272 98.9991 549.412 92.3254 555.317 87.7461C560.941 83.384 567.908 81.0784 575.464 81.0784H632.774V75.9865H592.26C589.909 75.9865 588.002 74.0803 588.002 71.7287V62.5944C588.002 56.653 588.608 49.8682 593.103 44.5932C597.127 39.8696 603.536 36.9462 613.883 35.1149C620.914 33.8665 628.84 33.2065 636.803 33.2065C644.746 33.2065 652.567 33.832 660.048 35.0651C667.007 36.2411 673.41 39.4502 678.095 44.104C683.179 49.1559 685.98 55.7078 685.98 62.5527V105.231C685.98 120.119 674.036 132.231 659.356 132.231H614.625C601.989 132.231 590.905 143.237 590.905 155.784V176.222C590.905 178.573 588.999 180.479 586.647 180.479ZM575.465 89.594C563.452 89.594 554.541 96.8591 551.628 109.028C547.572 125.873 547.572 135.629 551.627 152.528C553.76 161.393 558.9 171.964 571.276 171.964H582.39V155.783C582.39 147.582 585.864 139.396 591.921 133.326C598.107 127.128 606.17 123.715 614.625 123.715H659.355C669.34 123.715 677.463 115.423 677.463 105.23V62.5522C677.463 52.1082 667.997 45.0441 658.646 43.464C651.637 42.3089 644.283 41.7217 636.802 41.7217C629.33 41.7217 621.919 42.3366 615.37 43.4994C598.378 46.5071 596.518 51.8826 596.518 62.5944V67.4709H637.032C639.384 67.4709 641.29 69.3771 641.29 71.7287V85.3362C641.29 87.6878 639.384 89.594 637.032 89.594H575.465Z" fill="#275C87"/>
<path d="M734.257 114.825C731.032 101.883 724.917 92.1245 711.892 92.1245H695.098V111.977C695.098 127.39 682.03 140.373 667.12 140.373H622.389C610.159 140.373 600.024 150.844 600.024 163.115V205.752C600.024 217.897 610.578 225.017 622.389 228.495C636.545 232.64 650.157 233.395 667.119 228.495C678.386 225.227 689.485 218.652 689.485 205.752V196.812H644.797V183.01H711.892C724.917 183.01 729.733 173.921 734.257 160.31C738.948 146.278 738.739 132.792 734.257 114.825Z" fill="#FFCA1D"/>
<path d="M644.611 236.151C637.055 236.151 629.395 234.983 621.193 232.58C604.794 227.752 595.766 218.225 595.766 205.752V163.115C595.766 148.48 607.958 136.115 622.389 136.115H667.119C679.756 136.115 690.84 124.836 690.84 111.977V92.1245C690.84 89.7729 692.746 87.8667 695.097 87.8667H711.892C719.247 87.8667 725.323 90.5402 729.95 95.8135C733.669 100.052 736.429 105.934 738.388 113.795C743.153 132.897 743.125 147.212 738.295 161.659C733.99 174.613 728.404 187.267 711.891 187.267H649.054V192.554H689.485C691.836 192.554 693.743 194.461 693.743 196.812V205.752C693.743 214.627 689.329 226.486 668.305 232.584C659.996 234.984 652.247 236.151 644.611 236.151ZM622.389 144.631C612.574 144.631 604.282 153.096 604.282 163.115V205.752C604.282 217.04 616.38 222.287 623.592 224.41C631.103 226.61 637.783 227.635 644.611 227.635C651.436 227.635 658.412 226.578 665.938 224.404C678.736 220.692 685.228 214.416 685.228 205.752V201.07H644.797C642.446 201.07 640.54 199.163 640.54 196.812V183.009C640.54 180.658 642.446 178.751 644.797 178.751H711.892C720.896 178.751 725.178 174.129 730.216 158.966C734.555 145.99 734.528 133.502 730.126 115.855C726.769 102.387 721.146 96.3819 711.892 96.3819H699.356V111.977C699.356 129.677 684.593 144.63 667.12 144.63H622.389V144.631Z" fill="#BF9816"/>
<path d="M611.819 63.8256C607.357 63.8256 603.74 60.1677 603.74 55.6659C603.78 51.1237 607.357 47.4658 611.819 47.4658C616.241 47.4658 619.899 51.1637 619.899 55.6659C619.899 60.1677 616.281 63.8256 611.819 63.8256Z" fill="white"/>
<path d="M666.104 221.57C661.642 221.57 658.024 217.912 658.024 213.41C658.064 208.868 661.641 205.21 666.104 205.21C670.525 205.21 674.183 208.908 674.183 213.41C674.183 217.912 670.566 221.57 666.104 221.57Z" fill="white"/>
<path d="M120.863 61.85C121.859 61.85 122.553 62.0667 122.943 62.5C123.376 62.89 123.593 63.5833 123.593 64.58V105.27C123.593 106.267 123.376 106.982 122.943 107.415C122.553 107.805 121.859 108 120.863 108H113.453C112.456 108 111.741 107.805 111.308 107.415C110.918 106.982 110.723 106.267 110.723 105.27V73.225H98.4378V105.27C98.4378 106.267 98.2428 106.982 97.8528 107.415C97.4628 107.805 96.7478 108 95.7078 108H88.3628C87.3228 108 86.5861 107.805 86.1528 107.415C85.7628 106.982 85.5678 106.267 85.5678 105.27V64.58C85.5678 63.5833 85.7628 62.89 86.1528 62.5C86.5861 62.0667 87.3228 61.85 88.3628 61.85H120.863ZM155.35 61.85C160.463 61.85 164.537 63.28 167.57 66.14C170.603 69 172.12 72.9867 172.12 78.1C172.12 83.17 170.625 87.1133 167.635 89.93C164.645 92.7467 160.593 94.155 155.48 94.155H147.485V105.27C147.485 106.267 147.29 106.982 146.9 107.415C146.51 107.805 145.795 108 144.755 108H137.41C136.37 108 135.633 107.805 135.2 107.415C134.81 106.982 134.615 106.267 134.615 105.27V64.58C134.615 63.5833 134.81 62.89 135.2 62.5C135.633 62.0667 136.37 61.85 137.41 61.85H155.35ZM153.92 82.78C155.437 82.78 156.628 82.3467 157.495 81.48C158.362 80.6133 158.795 79.465 158.795 78.035C158.795 76.605 158.362 75.4567 157.495 74.59C156.628 73.68 155.437 73.225 153.92 73.225H147.485V82.78H153.92ZM180.145 79.075C180.145 73.3983 181.878 68.9567 185.345 65.75C188.855 62.5 193.795 60.875 200.165 60.875C206.491 60.875 211.388 62.5 214.855 65.75C218.365 68.9567 220.12 73.3983 220.12 79.075V90.775C220.12 96.4517 218.365 100.915 214.855 104.165C211.388 107.372 206.491 108.975 200.165 108.975C193.795 108.975 188.855 107.372 185.345 104.165C181.878 100.915 180.145 96.4517 180.145 90.775V79.075ZM207.25 78.49C207.25 76.4533 206.621 74.915 205.365 73.875C204.151 72.7917 202.418 72.25 200.165 72.25C197.868 72.25 196.091 72.7917 194.835 73.875C193.621 74.915 193.015 76.4533 193.015 78.49V91.36C193.015 93.3967 193.621 94.9567 194.835 96.04C196.091 97.08 197.868 97.6 200.165 97.6C202.418 97.6 204.151 97.08 205.365 96.04C206.621 94.9567 207.25 93.3967 207.25 91.36V78.49ZM257.861 61.85C258.901 61.85 259.616 62.0667 260.006 62.5C260.44 62.89 260.656 63.5833 260.656 64.58V70.43C260.656 71.47 260.44 72.2067 260.006 72.64C259.616 73.03 258.901 73.225 257.861 73.225H242.976V105.27C242.976 106.267 242.781 106.982 242.391 107.415C242.001 107.805 241.286 108 240.246 108H232.901C231.861 108 231.125 107.805 230.691 107.415C230.301 106.982 230.106 106.267 230.106 105.27V64.58C230.106 63.5833 230.301 62.89 230.691 62.5C231.125 62.0667 231.861 61.85 232.901 61.85H257.861ZM289.923 61.85C295.036 61.85 299.109 63.28 302.143 66.14C305.176 69 306.693 72.9867 306.693 78.1C306.693 83.17 305.198 87.1133 302.208 89.93C299.218 92.7467 295.166 94.155 290.053 94.155H282.058V105.27C282.058 106.267 281.863 106.982 281.473 107.415C281.083 107.805 280.368 108 279.328 108H271.983C270.943 108 270.206 107.805 269.773 107.415C269.383 106.982 269.188 106.267 269.188 105.27V64.58C269.188 63.5833 269.383 62.89 269.773 62.5C270.206 62.0667 270.943 61.85 271.983 61.85H289.923ZM288.493 82.78C290.009 82.78 291.201 82.3467 292.068 81.48C292.934 80.6133 293.368 79.465 293.368 78.035C293.368 76.605 292.934 75.4567 292.068 74.59C291.201 73.68 290.009 73.225 288.493 73.225H282.058V82.78H288.493ZM357.033 105.335C357.683 107.112 357.054 108 355.148 108H348.128C346.481 108 345.311 107.805 344.618 107.415C343.968 107.025 343.513 106.31 343.253 105.27L341.758 100.59H327.718L326.223 105.27C325.876 106.31 325.378 107.025 324.728 107.415C324.121 107.805 323.038 108 321.478 108H314.653C312.833 108 312.248 107.112 312.898 105.335L327.848 64.125C328.151 63.215 328.541 62.6083 329.018 62.305C329.494 62.0017 330.231 61.85 331.228 61.85H338.638C339.591 61.85 340.306 62.0017 340.783 62.305C341.303 62.6083 341.714 63.1717 342.018 63.995L357.033 105.335ZM336.428 82.78C336.038 81.48 335.713 80.0717 335.453 78.555C335.236 77.0383 335.106 75.8467 335.063 74.98L334.998 73.68H334.348C334.391 76.8 333.979 79.8117 333.113 82.715L330.708 90.385H338.833L336.428 82.78ZM409.454 61.785C410.494 61.785 411.209 61.98 411.599 62.37C412.032 62.76 412.249 63.475 412.249 64.515V105.335C412.249 106.332 412.032 107.025 411.599 107.415C411.209 107.805 410.494 108 409.454 108H402.369C401.329 108 400.614 107.805 400.224 107.415C399.834 107.025 399.639 106.332 399.639 105.335V96.04C399.639 91.36 400.592 85.6833 402.499 79.01H401.784C401.437 80.1367 400.787 81.8917 399.834 84.275C398.88 86.6583 398.079 88.4783 397.429 89.735L393.789 97.08C393.399 97.7733 392.987 98.2717 392.554 98.575C392.12 98.835 391.492 98.965 390.669 98.965H386.314C385.447 98.965 384.797 98.835 384.364 98.575C383.93 98.315 383.54 97.8167 383.194 97.08L379.359 89.735C378.015 87.3083 376.672 83.7333 375.329 79.01H374.679C376.455 86.1167 377.344 91.815 377.344 96.105V105.335C377.344 106.332 377.127 107.025 376.694 107.415C376.304 107.805 375.589 108 374.549 108H367.919C366.879 108 366.142 107.805 365.709 107.415C365.319 107.025 365.124 106.332 365.124 105.335V64.515C365.124 63.475 365.319 62.76 365.709 62.37C366.142 61.98 366.879 61.785 367.919 61.785H374.029C375.155 61.785 375.957 61.915 376.434 62.175C376.91 62.435 377.387 62.9767 377.864 63.8L388.589 84.86L399.314 63.865C399.747 62.9983 400.18 62.435 400.614 62.175C401.09 61.915 401.87 61.785 402.954 61.785H409.454ZM467.641 61.785C468.681 61.785 469.396 61.98 469.786 62.37C470.22 62.76 470.436 63.475 470.436 64.515V105.335C470.436 106.332 470.22 107.025 469.786 107.415C469.396 107.805 468.681 108 467.641 108H460.556C459.516 108 458.801 107.805 458.411 107.415C458.021 107.025 457.826 106.332 457.826 105.335V96.04C457.826 91.36 458.78 85.6833 460.686 79.01H459.971C459.625 80.1367 458.975 81.8917 458.021 84.275C457.068 86.6583 456.266 88.4783 455.616 89.735L451.976 97.08C451.586 97.7733 451.175 98.2717 450.741 98.575C450.308 98.835 449.68 98.965 448.856 98.965H444.501C443.635 98.965 442.985 98.835 442.551 98.575C442.118 98.315 441.728 97.8167 441.381 97.08L437.546 89.735C436.203 87.3083 434.86 83.7333 433.516 79.01H432.866C434.643 86.1167 435.531 91.815 435.531 96.105V105.335C435.531 106.332 435.315 107.025 434.881 107.415C434.491 107.805 433.776 108 432.736 108H426.106C425.066 108 424.33 107.805 423.896 107.415C423.506 107.025 423.311 106.332 423.311 105.335V64.515C423.311 63.475 423.506 62.76 423.896 62.37C424.33 61.98 425.066 61.785 426.106 61.785H432.216C433.343 61.785 434.145 61.915 434.621 62.175C435.098 62.435 435.575 62.9767 436.051 63.8L446.776 84.86L457.501 63.865C457.935 62.9983 458.368 62.435 458.801 62.175C459.278 61.915 460.058 61.785 461.141 61.785H467.641ZM522.709 105.335C523.359 107.112 522.731 108 520.824 108H513.804C512.157 108 510.987 107.805 510.294 107.415C509.644 107.025 509.189 106.31 508.929 105.27L507.434 100.59H493.394L491.899 105.27C491.552 106.31 491.054 107.025 490.404 107.415C489.797 107.805 488.714 108 487.154 108H480.329C478.509 108 477.924 107.112 478.574 105.335L493.524 64.125C493.827 63.215 494.217 62.6083 494.694 62.305C495.171 62.0017 495.907 61.85 496.904 61.85H504.314C505.267 61.85 505.982 62.0017 506.459 62.305C506.979 62.6083 507.391 63.1717 507.694 63.995L522.709 105.335ZM502.104 82.78C501.714 81.48 501.389 80.0717 501.129 78.555C500.912 77.0383 500.782 75.8467 500.739 74.98L500.674 73.68H500.024C500.067 76.8 499.656 79.8117 498.789 82.715L496.384 90.385H504.509L502.104 82.78ZM165.875 142.785C166.872 142.785 167.565 143.002 167.955 143.435C168.389 143.825 168.605 144.54 168.605 145.58V186.27C168.605 187.267 168.389 187.982 167.955 188.415C167.565 188.805 166.872 189 165.875 189H158.465C157.469 189 156.754 188.805 156.32 188.415C155.93 187.982 155.735 187.267 155.735 186.27V171.32H143.125V186.27C143.125 187.267 142.93 187.982 142.54 188.415C142.15 188.805 141.435 189 140.395 189H133.05C132.01 189 131.274 188.805 130.84 188.415C130.45 187.982 130.255 187.267 130.255 186.27V145.58C130.255 144.54 130.45 143.825 130.84 143.435C131.274 143.002 132.01 142.785 133.05 142.785H140.395C141.435 142.785 142.15 143.002 142.54 143.435C142.93 143.825 143.125 144.54 143.125 145.58V159.945H155.735V145.58C155.735 144.54 155.93 143.825 156.32 143.435C156.754 143.002 157.469 142.785 158.465 142.785H165.875ZM220.893 186.335C221.543 188.112 220.915 189 219.008 189H211.988C210.342 189 209.172 188.805 208.478 188.415C207.828 188.025 207.373 187.31 207.113 186.27L205.618 181.59H191.578L190.083 186.27C189.737 187.31 189.238 188.025 188.588 188.415C187.982 188.805 186.898 189 185.338 189H178.513C176.693 189 176.108 188.112 176.758 186.335L191.708 145.125C192.012 144.215 192.402 143.608 192.878 143.305C193.355 143.002 194.092 142.85 195.088 142.85H202.498C203.452 142.85 204.167 143.002 204.643 143.305C205.163 143.608 205.575 144.172 205.878 144.995L220.893 186.335ZM200.288 163.78C199.898 162.48 199.573 161.072 199.313 159.555C199.097 158.038 198.967 156.847 198.923 155.98L198.858 154.68H198.208C198.252 157.8 197.84 160.812 196.973 163.715L194.568 171.385H202.693L200.288 163.78Z" fill="white"/>
<path d="M265.949 142.85C271.062 142.85 275.136 144.28 278.169 147.14C281.202 150 282.719 153.987 282.719 159.1C282.719 164.17 281.224 168.113 278.234 170.93C275.244 173.747 271.192 175.155 266.079 175.155H258.084V186.27C258.084 187.267 257.889 187.982 257.499 188.415C257.109 188.805 256.394 189 255.354 189H248.009C246.969 189 246.232 188.805 245.799 188.415C245.409 187.982 245.214 187.267 245.214 186.27V145.58C245.214 144.583 245.409 143.89 245.799 143.5C246.232 143.067 246.969 142.85 248.009 142.85H265.949ZM264.519 163.78C266.036 163.78 267.227 163.347 268.094 162.48C268.961 161.613 269.394 160.465 269.394 159.035C269.394 157.605 268.961 156.457 268.094 155.59C267.227 154.68 266.036 154.225 264.519 154.225H258.084V163.78H264.519ZM329.065 142.85C330.019 142.85 330.604 143.132 330.82 143.695C331.037 144.215 330.907 144.843 330.43 145.58L315.415 171.125V186.27C315.415 187.267 315.22 187.982 314.83 188.415C314.44 188.805 313.725 189 312.685 189H305.34C304.3 189 303.564 188.805 303.13 188.415C302.74 187.982 302.545 187.267 302.545 186.27V171.125L287.595 145.58C287.119 144.843 286.989 144.215 287.205 143.695C287.422 143.132 288.007 142.85 288.96 142.85H296.76C298.494 142.85 299.664 142.98 300.27 143.24C300.92 143.5 301.549 144.172 302.155 145.255L309.11 158.515L316.26 145.255C316.867 144.172 317.474 143.5 318.08 143.24C318.73 142.98 319.9 142.85 321.59 142.85H329.065ZM371.173 142.85C372.213 142.85 372.928 143.067 373.318 143.5C373.751 143.89 373.968 144.583 373.968 145.58V151.43C373.968 152.47 373.751 153.207 373.318 153.64C372.928 154.03 372.213 154.225 371.173 154.225H361.553V186.27C361.553 187.267 361.336 187.982 360.903 188.415C360.513 188.805 359.798 189 358.758 189H351.413C350.373 189 349.658 188.805 349.268 188.415C348.878 187.982 348.683 187.267 348.683 186.27V154.225H338.998C337.958 154.225 337.243 154.03 336.853 153.64C336.463 153.207 336.268 152.47 336.268 151.43V145.58C336.268 144.583 336.463 143.89 336.853 143.5C337.243 143.067 337.958 142.85 338.998 142.85H371.173ZM418.073 142.785C419.069 142.785 419.763 143.002 420.153 143.435C420.586 143.825 420.803 144.54 420.803 145.58V186.27C420.803 187.267 420.586 187.982 420.153 188.415C419.763 188.805 419.069 189 418.073 189H410.663C409.666 189 408.951 188.805 408.518 188.415C408.128 187.982 407.933 187.267 407.933 186.27V171.32H395.323V186.27C395.323 187.267 395.128 187.982 394.738 188.415C394.348 188.805 393.633 189 392.593 189H385.248C384.208 189 383.471 188.805 383.038 188.415C382.648 187.982 382.453 187.267 382.453 186.27V145.58C382.453 144.54 382.648 143.825 383.038 143.435C383.471 143.002 384.208 142.785 385.248 142.785H392.593C393.633 142.785 394.348 143.002 394.738 143.435C395.128 143.825 395.323 144.54 395.323 145.58V159.945H407.933V145.58C407.933 144.54 408.128 143.825 408.518 143.435C408.951 143.002 409.666 142.785 410.663 142.785H418.073ZM430.776 160.075C430.776 154.398 432.509 149.957 435.976 146.75C439.486 143.5 444.426 141.875 450.796 141.875C457.122 141.875 462.019 143.5 465.486 146.75C468.996 149.957 470.751 154.398 470.751 160.075V171.775C470.751 177.452 468.996 181.915 465.486 185.165C462.019 188.372 457.122 189.975 450.796 189.975C444.426 189.975 439.486 188.372 435.976 185.165C432.509 181.915 430.776 177.452 430.776 171.775V160.075ZM457.881 159.49C457.881 157.453 457.252 155.915 455.996 154.875C454.782 153.792 453.049 153.25 450.796 153.25C448.499 153.25 446.722 153.792 445.466 154.875C444.252 155.915 443.646 157.453 443.646 159.49V172.36C443.646 174.397 444.252 175.957 445.466 177.04C446.722 178.08 448.499 178.6 450.796 178.6C453.049 178.6 454.782 178.08 455.996 177.04C457.252 175.957 457.881 174.397 457.881 172.36V159.49ZM517.007 142.85C518.004 142.85 518.697 143.067 519.087 143.5C519.521 143.89 519.737 144.583 519.737 145.58V186.27C519.737 187.267 519.521 187.982 519.087 188.415C518.697 188.805 518.004 189 517.007 189H509.662C508.449 189 507.561 188.567 506.997 187.7L496.987 172.295C495.644 170.172 494.582 168.2 493.802 166.38C493.066 164.56 492.221 162.068 491.267 158.905H490.747C491.354 161.592 491.766 163.498 491.982 164.625C492.199 165.752 492.394 167.312 492.567 169.305C492.784 171.255 492.892 173.378 492.892 175.675V186.27C492.892 187.267 492.676 187.982 492.242 188.415C491.852 188.805 491.137 189 490.097 189H483.532C482.492 189 481.756 188.805 481.322 188.415C480.932 187.982 480.737 187.267 480.737 186.27V145.58C480.737 144.583 480.932 143.89 481.322 143.5C481.756 143.067 482.492 142.85 483.532 142.85H491.202C492.459 142.85 493.369 143.283 493.932 144.15L504.592 160.79C505.286 161.83 505.892 162.87 506.412 163.91C506.932 164.95 507.322 165.817 507.582 166.51C507.886 167.203 508.276 168.178 508.752 169.435C509.229 170.692 509.662 171.775 510.052 172.685H510.572C509.446 169.002 508.666 166.12 508.232 164.04C507.842 161.96 507.647 159.36 507.647 156.24V145.58C507.647 144.583 507.842 143.89 508.232 143.5C508.622 143.067 509.337 142.85 510.377 142.85H517.007Z" fill="#275C87"/>
<path d="M122.943 62.5L121.456 63.8379L121.527 63.9162L121.605 63.9866L122.943 62.5ZM122.943 107.415L121.529 106.001L121.529 106.001L122.943 107.415ZM111.308 107.415L109.821 108.753L109.892 108.831L109.97 108.902L111.308 107.415ZM110.723 73.225H112.723V71.225H110.723V73.225ZM98.4378 73.225V71.225H96.4378V73.225H98.4378ZM97.8528 107.415L99.267 108.829L99.3042 108.792L99.3394 108.753L97.8528 107.415ZM86.1528 107.415L84.6662 108.753L84.7366 108.831L84.8149 108.902L86.1528 107.415ZM86.1528 62.5L84.7386 61.0858L84.7386 61.0858L86.1528 62.5ZM120.863 63.85C121.228 63.85 121.437 63.8912 121.534 63.9215C121.621 63.9489 121.554 63.9463 121.456 63.8379L124.429 61.1621C123.463 60.0887 122.044 59.85 120.863 59.85V63.85ZM121.605 63.9866C121.496 63.889 121.494 63.8214 121.521 63.909C121.552 64.0058 121.593 64.2144 121.593 64.58H125.593C125.593 63.3987 125.354 61.9794 124.281 61.0134L121.605 63.9866ZM121.593 64.58V105.27H125.593V64.58H121.593ZM121.593 105.27C121.593 105.633 121.552 105.855 121.516 105.974C121.483 106.085 121.467 106.063 121.529 106.001L124.357 108.829C125.342 107.844 125.593 106.48 125.593 105.27H121.593ZM121.529 106.001C121.639 105.89 121.704 105.896 121.589 105.928C121.471 105.962 121.243 106 120.863 106V110C122 110 123.385 109.801 124.357 108.829L121.529 106.001ZM120.863 106H113.453V110H120.863V106ZM113.453 106C113.075 106 112.834 105.962 112.695 105.924C112.56 105.887 112.576 105.865 112.646 105.928L109.97 108.902C110.955 109.788 112.285 110 113.453 110V106ZM112.794 106.077C112.857 106.147 112.836 106.163 112.799 106.028C112.761 105.889 112.723 105.647 112.723 105.27H108.723C108.723 106.438 108.935 107.768 109.821 108.753L112.794 106.077ZM112.723 105.27V73.225H108.723V105.27H112.723ZM110.723 71.225H98.4378V75.225H110.723V71.225ZM96.4378 73.225V105.27H100.438V73.225H96.4378ZM96.4378 105.27C96.4378 105.647 96.3998 105.889 96.362 106.028C96.325 106.163 96.3033 106.147 96.3662 106.077L99.3394 108.753C100.226 107.768 100.438 106.438 100.438 105.27H96.4378ZM96.4386 106.001C96.56 105.879 96.6307 105.888 96.4978 105.924C96.3652 105.96 96.1155 106 95.7078 106V110C96.8586 110 98.2839 109.812 99.267 108.829L96.4386 106.001ZM95.7078 106H88.3628V110H95.7078V106ZM88.3628 106C87.9574 106 87.6953 105.961 87.5421 105.92C87.3898 105.88 87.4102 105.856 87.4907 105.928L84.8149 108.902C85.8115 109.799 87.1786 110 88.3628 110V106ZM87.6394 106.077C87.7023 106.147 87.6805 106.163 87.6436 106.028C87.6057 105.889 87.5678 105.647 87.5678 105.27H83.5678C83.5678 106.438 83.7796 107.768 84.6662 108.753L87.6394 106.077ZM87.5678 105.27V64.58H83.5678V105.27H87.5678ZM87.5678 64.58C87.5678 64.2001 87.6063 63.9715 87.6393 63.854C87.6716 63.7392 87.6774 63.8039 87.567 63.9142L84.7386 61.0858C83.7667 62.0576 83.5678 63.4431 83.5678 64.58H87.5678ZM87.567 63.9142C87.4945 63.9867 87.4675 63.9686 87.5946 63.9312C87.7279 63.892 87.971 63.85 88.3628 63.85V59.85C87.1392 59.85 85.7362 60.0881 84.7386 61.0858L87.567 63.9142ZM88.3628 63.85H120.863V59.85H88.3628V63.85ZM167.57 66.14L168.942 64.6848L168.942 64.6848L167.57 66.14ZM167.635 89.93L166.263 88.4742L166.263 88.4742L167.635 89.93ZM147.485 94.155V92.155H145.485V94.155H147.485ZM146.9 107.415L148.314 108.829L148.351 108.792L148.386 108.753L146.9 107.415ZM135.2 107.415L133.713 108.753L133.784 108.831L133.862 108.902L135.2 107.415ZM135.2 62.5L133.786 61.0858L133.786 61.0858L135.2 62.5ZM157.495 81.48L156.081 80.0658L156.081 80.0658L157.495 81.48ZM157.495 74.59L156.047 75.9693L156.063 75.987L156.081 76.0042L157.495 74.59ZM147.485 73.225V71.225H145.485V73.225H147.485ZM147.485 82.78H145.485V84.78H147.485V82.78ZM155.35 63.85C160.075 63.85 163.616 65.1605 166.198 67.5952L168.942 64.6848C165.457 61.3995 160.852 59.85 155.35 59.85V63.85ZM166.198 67.5952C168.742 69.9943 170.12 73.4036 170.12 78.1H174.12C174.12 72.5697 172.464 68.0056 168.942 64.6848L166.198 67.5952ZM170.12 78.1C170.12 82.7571 168.762 86.1208 166.263 88.4742L169.006 91.3858C172.488 88.1058 174.12 83.5829 174.12 78.1H170.12ZM166.263 88.4742C163.73 90.8609 160.214 92.155 155.48 92.155V96.155C160.972 96.155 165.56 94.6324 169.006 91.3858L166.263 88.4742ZM155.48 92.155H147.485V96.155H155.48V92.155ZM145.485 94.155V105.27H149.485V94.155H145.485ZM145.485 105.27C145.485 105.647 145.447 105.889 145.409 106.028C145.372 106.163 145.35 106.147 145.413 106.077L148.386 108.753C149.273 107.768 149.485 106.438 149.485 105.27H145.485ZM145.486 106.001C145.607 105.879 145.678 105.888 145.545 105.924C145.412 105.96 145.163 106 144.755 106V110C145.906 110 147.331 109.812 148.314 108.829L145.486 106.001ZM144.755 106H137.41V110H144.755V106ZM137.41 106C137.004 106 136.742 105.961 136.589 105.92C136.437 105.88 136.457 105.856 136.538 105.928L133.862 108.902C134.859 109.799 136.226 110 137.41 110V106ZM136.686 106.077C136.749 106.147 136.728 106.163 136.691 106.028C136.653 105.889 136.615 105.647 136.615 105.27H132.615C132.615 106.438 132.827 107.768 133.713 108.753L136.686 106.077ZM136.615 105.27V64.58H132.615V105.27H136.615ZM136.615 64.58C136.615 64.2001 136.653 63.9715 136.686 63.854C136.719 63.7392 136.724 63.8039 136.614 63.9142L133.786 61.0858C132.814 62.0576 132.615 63.4431 132.615 64.58H136.615ZM136.614 63.9142C136.542 63.9867 136.515 63.9686 136.642 63.9312C136.775 63.892 137.018 63.85 137.41 63.85V59.85C136.186 59.85 134.783 60.0881 133.786 61.0858L136.614 63.9142ZM137.41 63.85H155.35V59.85H137.41V63.85ZM153.92 84.78C155.833 84.78 157.582 84.2208 158.909 82.8942L156.081 80.0658C155.674 80.4725 155.04 80.78 153.92 80.78V84.78ZM158.909 82.8942C160.213 81.59 160.795 79.8999 160.795 78.035H156.795C156.795 79.0301 156.51 79.6367 156.081 80.0658L158.909 82.8942ZM160.795 78.035C160.795 76.1701 160.213 74.48 158.909 73.1758L156.081 76.0042C156.51 76.4333 156.795 77.0399 156.795 78.035H160.795ZM158.943 73.2107C157.622 71.8239 155.862 71.225 153.92 71.225V75.225C155.011 75.225 155.634 75.5361 156.047 75.9693L158.943 73.2107ZM153.92 71.225H147.485V75.225H153.92V71.225ZM145.485 73.225V82.78H149.485V73.225H145.485ZM147.485 84.78H153.92V80.78H147.485V84.78ZM185.345 65.75L186.703 67.2182L186.704 67.2175L185.345 65.75ZM214.855 65.75L213.487 67.2091L213.496 67.2179L213.506 67.2266L214.855 65.75ZM214.855 104.165L216.213 105.633L216.214 105.633L214.855 104.165ZM185.345 104.165L183.977 105.624L183.986 105.633L183.996 105.642L185.345 104.165ZM205.365 73.875L204.033 75.3669L204.061 75.3919L204.09 75.4158L205.365 73.875ZM194.835 73.875L196.136 75.3935L196.141 75.3898L194.835 73.875ZM194.835 96.04L193.503 97.5319L193.531 97.5569L193.56 97.5808L194.835 96.04ZM205.365 96.04L206.666 97.5585L206.671 97.5548L205.365 96.04ZM182.145 79.075C182.145 73.8338 183.727 69.9707 186.703 67.2182L183.987 64.2818C180.029 67.9426 178.145 72.9629 178.145 79.075H182.145ZM186.704 67.2175C189.735 64.4104 194.128 62.875 200.165 62.875V58.875C193.462 58.875 187.974 60.5896 183.986 64.2825L186.704 67.2175ZM200.165 62.875C206.156 62.875 210.5 64.4089 213.487 67.2091L216.223 64.2909C212.276 60.5911 206.827 58.875 200.165 58.875V62.875ZM213.506 67.2266C216.521 69.9811 218.12 73.8415 218.12 79.075H222.12C222.12 72.9551 220.209 67.9322 216.204 64.2734L213.506 67.2266ZM218.12 79.075V90.775H222.12V79.075H218.12ZM218.12 90.775C218.12 96.0077 216.521 99.8966 213.496 102.697L216.214 105.633C220.209 101.933 222.12 96.8957 222.12 90.775H218.12ZM213.497 102.697C210.51 105.459 206.162 106.975 200.165 106.975V110.975C206.821 110.975 212.266 109.284 216.213 105.633L213.497 102.697ZM200.165 106.975C194.121 106.975 189.725 105.458 186.694 102.688L183.996 105.642C187.985 109.286 193.468 110.975 200.165 110.975V106.975ZM186.713 102.706C183.727 99.9069 182.145 96.0154 182.145 90.775H178.145C178.145 96.888 180.029 101.923 183.977 105.624L186.713 102.706ZM182.145 90.775V79.075H178.145V90.775H182.145ZM209.25 78.49C209.25 76.0189 208.467 73.8464 206.64 72.3342L204.09 75.4158C204.776 75.9836 205.25 76.8878 205.25 78.49H209.25ZM206.697 72.3831C204.997 70.8651 202.72 70.25 200.165 70.25V74.25C202.116 74.25 203.306 74.7183 204.033 75.3669L206.697 72.3831ZM200.165 70.25C197.572 70.25 195.267 70.8618 193.529 72.3602L196.141 75.3898C196.916 74.7216 198.164 74.25 200.165 74.25V70.25ZM193.533 72.3565C191.761 73.8759 191.015 76.0419 191.015 78.49H195.015C195.015 76.8647 195.482 75.9541 196.136 75.3935L193.533 72.3565ZM191.015 78.49V91.36H195.015V78.49H191.015ZM191.015 91.36C191.015 93.812 191.761 95.9771 193.503 97.5319L196.167 94.5481C195.481 93.9362 195.015 92.9814 195.015 91.36H191.015ZM193.56 97.5808C195.297 99.0183 197.59 99.6 200.165 99.6V95.6C198.146 95.6 196.886 95.1417 196.11 94.4992L193.56 97.5808ZM200.165 99.6C202.702 99.6 204.967 99.0156 206.666 97.5585L204.063 94.5215C203.336 95.1444 202.135 95.6 200.165 95.6V99.6ZM206.671 97.5548C208.467 96.0066 209.25 93.8344 209.25 91.36H205.25C205.25 92.9589 204.776 93.9067 204.059 94.5252L206.671 97.5548ZM209.25 91.36V78.49H205.25V91.36H209.25ZM260.006 62.5L258.52 63.8379L258.59 63.9162L258.669 63.9866L260.006 62.5ZM242.976 73.225V71.225H240.976V73.225H242.976ZM242.391 107.415L243.806 108.829L243.843 108.792L243.878 108.753L242.391 107.415ZM230.691 107.415L229.205 108.753L229.275 108.831L229.354 108.902L230.691 107.415ZM230.691 62.5L229.277 61.0858L229.277 61.0858L230.691 62.5ZM257.861 63.85C258.256 63.85 258.486 63.8926 258.598 63.9265C258.703 63.9584 258.629 63.9588 258.52 63.8379L261.493 61.1621C260.515 60.0752 259.054 59.85 257.861 59.85V63.85ZM258.669 63.9866C258.56 63.889 258.558 63.8214 258.585 63.909C258.615 64.0058 258.656 64.2144 258.656 64.58H262.656C262.656 63.3987 262.418 61.9794 261.344 61.0134L258.669 63.9866ZM258.656 64.58V70.43H262.656V64.58H258.656ZM258.656 70.43C258.656 70.8218 258.614 71.0649 258.575 71.1982C258.538 71.3253 258.52 71.2983 258.592 71.2258L261.421 74.0542C262.418 73.0565 262.656 71.6536 262.656 70.43H258.656ZM258.592 71.2258C258.714 71.1043 258.784 71.113 258.651 71.1492C258.519 71.1854 258.269 71.225 257.861 71.225V75.225C259.012 75.225 260.438 75.0373 261.421 74.0542L258.592 71.2258ZM257.861 71.225H242.976V75.225H257.861V71.225ZM240.976 73.225V105.27H244.976V73.225H240.976ZM240.976 105.27C240.976 105.647 240.938 105.889 240.901 106.028C240.864 106.163 240.842 106.147 240.905 106.077L243.878 108.753C244.765 107.768 244.976 106.438 244.976 105.27H240.976ZM240.977 106.001C241.099 105.879 241.169 105.888 241.036 105.924C240.904 105.96 240.654 106 240.246 106V110C241.397 110 242.823 109.812 243.806 108.829L240.977 106.001ZM240.246 106H232.901V110H240.246V106ZM232.901 106C232.496 106 232.234 105.961 232.081 105.92C231.928 105.88 231.949 105.856 232.029 105.928L229.354 108.902C230.35 109.799 231.717 110 232.901 110V106ZM232.178 106.077C232.241 106.147 232.219 106.163 232.182 106.028C232.144 105.889 232.106 105.647 232.106 105.27H228.106C228.106 106.438 228.318 107.768 229.205 108.753L232.178 106.077ZM232.106 105.27V64.58H228.106V105.27H232.106ZM232.106 64.58C232.106 64.2001 232.145 63.9715 232.178 63.854C232.21 63.7392 232.216 63.8039 232.106 63.9142L229.277 61.0858C228.305 62.0576 228.106 63.4431 228.106 64.58H232.106ZM232.106 63.9142C232.033 63.9867 232.006 63.9686 232.133 63.9312C232.267 63.892 232.51 63.85 232.901 63.85V59.85C231.678 59.85 230.275 60.0881 229.277 61.0858L232.106 63.9142ZM232.901 63.85H257.861V59.85H232.901V63.85ZM302.143 66.14L303.515 64.6848L303.515 64.6848L302.143 66.14ZM302.208 89.93L300.836 88.4742L300.836 88.4742L302.208 89.93ZM282.058 94.155V92.155H280.058V94.155H282.058ZM281.473 107.415L282.887 108.829L282.924 108.792L282.959 108.753L281.473 107.415ZM269.773 107.415L268.286 108.753L268.357 108.831L268.435 108.902L269.773 107.415ZM269.773 62.5L268.358 61.0858L268.358 61.0858L269.773 62.5ZM292.068 81.48L290.653 80.0658L290.653 80.0658L292.068 81.48ZM292.068 74.59L290.619 75.9693L290.636 75.987L290.653 76.0042L292.068 74.59ZM282.058 73.225V71.225H280.058V73.225H282.058ZM282.058 82.78H280.058V84.78H282.058V82.78ZM289.923 63.85C294.648 63.85 298.188 65.1605 300.771 67.5952L303.515 64.6848C300.03 61.3995 295.424 59.85 289.923 59.85V63.85ZM300.771 67.5952C303.315 69.9943 304.693 73.4036 304.693 78.1H308.693C308.693 72.5697 307.037 68.0056 303.515 64.6848L300.771 67.5952ZM304.693 78.1C304.693 82.7571 303.335 86.1208 300.836 88.4742L303.579 91.3858C307.061 88.1058 308.693 83.5829 308.693 78.1H304.693ZM300.836 88.4742C298.303 90.8609 294.787 92.155 290.053 92.155V96.155C295.545 96.155 300.133 94.6324 303.579 91.3858L300.836 88.4742ZM290.053 92.155H282.058V96.155H290.053V92.155ZM280.058 94.155V105.27H284.058V94.155H280.058ZM280.058 105.27C280.058 105.647 280.02 105.889 279.982 106.028C279.945 106.163 279.923 106.147 279.986 106.077L282.959 108.753C283.846 107.768 284.058 106.438 284.058 105.27H280.058ZM280.058 106.001C280.18 105.879 280.251 105.888 280.118 105.924C279.985 105.96 279.735 106 279.328 106V110C280.478 110 281.904 109.812 282.887 108.829L280.058 106.001ZM279.328 106H271.983V110H279.328V106ZM271.983 106C271.577 106 271.315 105.961 271.162 105.92C271.01 105.88 271.03 105.856 271.111 105.928L268.435 108.902C269.431 109.799 270.799 110 271.983 110V106ZM271.259 106.077C271.322 106.147 271.3 106.163 271.263 106.028C271.226 105.889 271.188 105.647 271.188 105.27H267.188C267.188 106.438 267.399 107.768 268.286 108.753L271.259 106.077ZM271.188 105.27V64.58H267.188V105.27H271.188ZM271.188 64.58C271.188 64.2001 271.226 63.9715 271.259 63.854C271.292 63.7392 271.297 63.8039 271.187 63.9142L268.358 61.0858C267.387 62.0576 267.188 63.4431 267.188 64.58H271.188ZM271.187 63.9142C271.114 63.9867 271.087 63.9686 271.215 63.9312C271.348 63.892 271.591 63.85 271.983 63.85V59.85C270.759 59.85 269.356 60.0881 268.358 61.0858L271.187 63.9142ZM271.983 63.85H289.923V59.85H271.983V63.85ZM288.493 84.78C290.406 84.78 292.155 84.2208 293.482 82.8942L290.653 80.0658C290.247 80.4725 289.612 80.78 288.493 80.78V84.78ZM293.482 82.8942C294.786 81.59 295.368 79.8999 295.368 78.035H291.368C291.368 79.0301 291.083 79.6367 290.653 80.0658L293.482 82.8942ZM295.368 78.035C295.368 76.1701 294.786 74.48 293.482 73.1758L290.653 76.0042C291.083 76.4333 291.368 77.0399 291.368 78.035H295.368ZM293.516 73.2107C292.195 71.8239 290.435 71.225 288.493 71.225V75.225C289.584 75.225 290.207 75.5361 290.619 75.9693L293.516 73.2107ZM288.493 71.225H282.058V75.225H288.493V71.225ZM280.058 73.225V82.78H284.058V73.225H280.058ZM282.058 84.78H288.493V80.78H282.058V84.78ZM357.033 105.335L355.153 106.018L355.154 106.022L357.033 105.335ZM344.618 107.415L343.589 109.13L343.613 109.144L343.637 109.158L344.618 107.415ZM343.253 105.27L345.193 104.785L345.177 104.723L345.158 104.661L343.253 105.27ZM341.758 100.59L343.663 99.9814L343.218 98.59H341.758V100.59ZM327.718 100.59V98.59H326.257L325.813 99.9814L327.718 100.59ZM326.223 105.27L328.12 105.902L328.124 105.891L328.128 105.879L326.223 105.27ZM324.728 107.415L323.699 105.7L323.672 105.716L323.646 105.733L324.728 107.415ZM312.898 105.335L314.776 106.022L314.778 106.017L312.898 105.335ZM327.848 64.125L329.728 64.8071L329.737 64.7824L329.745 64.7575L327.848 64.125ZM329.018 62.305L330.091 63.9923L330.091 63.9923L329.018 62.305ZM340.783 62.305L339.709 63.9923L339.742 64.0131L339.775 64.0326L340.783 62.305ZM342.018 63.995L343.898 63.3122L343.894 63.3036L342.018 63.995ZM336.428 82.78L334.512 83.3547L334.516 83.3689L334.521 83.383L336.428 82.78ZM335.453 78.555L333.473 78.8378L333.477 78.8654L333.481 78.8929L335.453 78.555ZM335.063 74.98L333.065 75.0799L335.063 74.98ZM334.998 73.68L336.995 73.5801L336.9 71.68H334.998V73.68ZM334.348 73.68V71.68H332.32L332.348 73.7078L334.348 73.68ZM333.113 82.715L335.021 83.3134L335.025 83.3003L335.029 83.2871L333.113 82.715ZM330.708 90.385L328.799 89.7866L327.985 92.385H330.708V90.385ZM338.833 90.385V92.385H341.563L340.74 89.782L338.833 90.385ZM355.154 106.022C355.182 106.096 355.203 106.163 355.221 106.222C355.238 106.282 355.251 106.333 355.26 106.375C355.269 106.418 355.274 106.451 355.277 106.475C355.28 106.5 355.281 106.513 355.281 106.517C355.281 106.526 355.279 106.49 355.298 106.423C355.307 106.39 355.321 106.351 355.341 106.308C355.361 106.265 355.386 106.221 355.416 106.179C355.446 106.136 355.479 106.099 355.512 106.066C355.545 106.033 355.576 106.008 355.603 105.989C355.657 105.951 355.688 105.942 355.677 105.946C355.671 105.948 355.656 105.953 355.631 105.959C355.605 105.965 355.571 105.971 355.526 105.978C355.481 105.984 355.427 105.99 355.363 105.994C355.3 105.998 355.228 106 355.148 106V110C356.272 110 357.783 109.76 358.682 108.489C359.586 107.21 359.297 105.704 358.911 104.648L355.154 106.022ZM355.148 106H348.128V110H355.148V106ZM348.128 106C346.53 106 345.812 105.792 345.598 105.672L343.637 109.158C344.81 109.818 346.432 110 348.128 110V106ZM345.647 105.7C345.612 105.679 345.378 105.526 345.193 104.785L341.312 105.755C341.647 107.094 342.323 108.371 343.589 109.13L345.647 105.7ZM345.158 104.661L343.663 99.9814L339.853 101.199L341.348 105.879L345.158 104.661ZM341.758 98.59H327.718V102.59H341.758V98.59ZM325.813 99.9814L324.318 104.661L328.128 105.879L329.623 101.199L325.813 99.9814ZM324.325 104.638C324.064 105.423 323.79 105.645 323.699 105.7L325.757 109.13C326.965 108.405 327.688 107.197 328.12 105.902L324.325 104.638ZM323.646 105.733C323.649 105.731 323.511 105.812 323.106 105.885C322.718 105.955 322.184 106 321.478 106V110C323.068 110 324.675 109.827 325.809 109.097L323.646 105.733ZM321.478 106H314.653V110H321.478V106ZM314.653 106C314.505 106 314.395 105.991 314.319 105.98C314.242 105.968 314.21 105.957 314.212 105.957C314.215 105.958 314.259 105.975 314.322 106.022C314.387 106.071 314.458 106.141 314.519 106.234C314.58 106.326 314.612 106.412 314.628 106.476C314.643 106.537 314.641 106.566 314.641 106.55C314.642 106.533 314.645 106.481 314.665 106.388C314.686 106.296 314.72 106.175 314.776 106.022L311.019 104.648C310.64 105.685 310.34 107.161 311.179 108.434C312.044 109.748 313.549 110 314.653 110V106ZM314.778 106.017L329.728 64.8071L325.968 63.4429L311.018 104.653L314.778 106.017ZM329.745 64.7575C329.86 64.412 329.969 64.1949 330.05 64.069C330.13 63.9443 330.155 63.9518 330.091 63.9923L327.944 60.6177C326.89 61.2886 326.306 62.4239 325.95 63.4925L329.745 64.7575ZM330.091 63.9923C330.069 64.0065 330.126 63.9648 330.331 63.9227C330.532 63.8813 330.824 63.85 331.228 63.85V59.85C330.104 59.85 328.904 60.007 327.944 60.6177L330.091 63.9923ZM331.228 63.85H338.638V59.85H331.228V63.85ZM338.638 63.85C339.014 63.85 339.287 63.8805 339.474 63.9202C339.663 63.9603 339.722 64.0005 339.709 63.9923L341.856 60.6177C340.907 60.0135 339.739 59.85 338.638 59.85V63.85ZM339.775 64.0326C339.746 64.0155 339.927 64.105 340.141 64.6864L343.894 63.3036C343.502 62.2384 342.86 61.2012 341.79 60.5774L339.775 64.0326ZM340.138 64.6778L355.153 106.018L358.913 104.652L343.898 63.3122L340.138 64.6778ZM338.343 82.2053C337.979 80.9925 337.672 79.6641 337.424 78.2171L333.481 78.8929C333.753 80.4792 334.096 81.9675 334.512 83.3547L338.343 82.2053ZM337.433 78.2722C337.219 76.7779 337.099 75.6563 337.06 74.8801L333.065 75.0799C333.113 76.037 333.253 77.2988 333.473 78.8378L337.433 78.2722ZM337.06 74.8801L336.995 73.5801L333 73.7799L333.065 75.0799L337.06 74.8801ZM334.998 71.68H334.348V75.68H334.998V71.68ZM332.348 73.7078C332.388 76.6309 332.003 79.4399 331.196 82.1429L335.029 83.2871C335.956 80.1834 336.394 76.9691 336.347 73.6522L332.348 73.7078ZM331.204 82.1166L328.799 89.7866L332.616 90.9834L335.021 83.3134L331.204 82.1166ZM330.708 92.385H338.833V88.385H330.708V92.385ZM340.74 89.782L338.335 82.177L334.521 83.383L336.926 90.988L340.74 89.782ZM411.599 62.37L410.184 63.7842L410.222 63.8214L410.261 63.8566L411.599 62.37ZM411.599 107.415L410.261 105.928L410.222 105.964L410.184 106.001L411.599 107.415ZM400.224 107.415L398.809 108.829L400.224 107.415ZM402.499 79.01L404.422 79.5594L405.15 77.01H402.499V79.01ZM401.784 79.01V77.01H400.306L399.872 78.4218L401.784 79.01ZM399.834 84.275L401.691 85.0178L401.691 85.0178L399.834 84.275ZM397.429 89.735L395.652 88.8162L395.644 88.8315L395.637 88.8469L397.429 89.735ZM393.789 97.08L395.532 98.0605L395.557 98.0149L395.581 97.9681L393.789 97.08ZM392.554 98.575L393.583 100.29L393.643 100.254L393.701 100.213L392.554 98.575ZM383.194 97.08L385.003 96.2284L384.986 96.191L384.967 96.1543L383.194 97.08ZM379.359 89.735L381.132 88.8093L381.12 88.7877L381.108 88.7664L379.359 89.735ZM375.329 79.01L377.252 78.4629L376.839 77.01H375.329V79.01ZM374.679 79.01V77.01H372.117L372.738 79.4951L374.679 79.01ZM376.694 107.415L375.356 105.928L375.317 105.964L375.279 106.001L376.694 107.415ZM365.709 107.415L364.294 108.829L364.332 108.866L364.371 108.902L365.709 107.415ZM365.709 62.37L364.371 60.8834L364.332 60.9186L364.294 60.9558L365.709 62.37ZM376.434 62.175L375.476 63.9308L375.476 63.9308L376.434 62.175ZM377.864 63.8L379.646 62.8924L379.621 62.8445L379.594 62.7979L377.864 63.8ZM388.589 84.86L386.806 85.7676L388.586 89.2618L390.37 85.7698L388.589 84.86ZM399.314 63.865L401.095 64.7748L401.099 64.7671L401.102 64.7594L399.314 63.865ZM400.614 62.175L399.656 60.4192L399.62 60.4389L399.585 60.46L400.614 62.175ZM409.454 63.785C409.861 63.785 410.111 63.8246 410.244 63.8608C410.377 63.897 410.306 63.9057 410.184 63.7842L413.013 60.9558C412.03 59.9727 410.604 59.785 409.454 59.785V63.785ZM410.261 63.8566C410.14 63.7478 410.14 63.6736 410.172 63.7788C410.206 63.8907 410.249 64.1207 410.249 64.515H414.249C414.249 63.3222 414.023 61.8616 412.937 60.8834L410.261 63.8566ZM410.249 64.515V105.335H414.249V64.515H410.249ZM410.249 105.335C410.249 105.701 410.207 105.909 410.177 106.006C410.15 106.094 410.152 106.026 410.261 105.928L412.937 108.902C414.01 107.936 414.249 106.516 414.249 105.335H410.249ZM410.184 106.001C410.306 105.879 410.377 105.888 410.244 105.924C410.111 105.96 409.861 106 409.454 106V110C410.604 110 412.03 109.812 413.013 108.829L410.184 106.001ZM409.454 106H402.369V110H409.454V106ZM402.369 106C401.961 106 401.711 105.96 401.579 105.924C401.446 105.888 401.516 105.879 401.638 106.001L398.809 108.829C399.793 109.812 401.218 110 402.369 110V106ZM401.638 106.001C401.748 106.111 401.742 106.176 401.71 106.061C401.677 105.943 401.639 105.715 401.639 105.335H397.639C397.639 106.472 397.838 107.857 398.809 108.829L401.638 106.001ZM401.639 105.335V96.04H397.639V105.335H401.639ZM401.639 96.04C401.639 91.612 402.544 86.1315 404.422 79.5594L400.576 78.4606C398.64 85.2352 397.639 91.108 397.639 96.04H401.639ZM402.499 77.01H401.784V81.01H402.499V77.01ZM399.872 78.4218C399.551 79.4646 398.928 81.155 397.977 83.5322L401.691 85.0178C402.646 82.6283 403.323 80.8087 403.695 79.5982L399.872 78.4218ZM397.977 83.5322C397.031 85.8954 396.258 87.6453 395.652 88.8162L399.205 90.6538C399.899 89.3114 400.729 87.4213 401.691 85.0178L397.977 83.5322ZM395.637 88.8469L391.997 96.1919L395.581 97.9681L399.221 90.6231L395.637 88.8469ZM392.045 96.0995C391.735 96.6517 391.502 96.8696 391.407 96.9365L393.701 100.213C394.472 99.6737 395.062 98.895 395.532 98.0605L392.045 96.0995ZM391.525 96.86C391.545 96.8479 391.503 96.8778 391.352 96.909C391.203 96.9399 390.98 96.965 390.669 96.965V100.965C391.65 100.965 392.7 100.819 393.583 100.29L391.525 96.86ZM390.669 96.965H386.314V100.965H390.669V96.965ZM386.314 96.965C385.974 96.965 385.732 96.939 385.568 96.9063C385.402 96.8731 385.362 96.8417 385.393 96.86L383.335 100.29C384.229 100.826 385.312 100.965 386.314 100.965V96.965ZM385.393 96.86C385.431 96.8833 385.402 96.8767 385.321 96.7736C385.24 96.6702 385.13 96.4978 385.003 96.2284L381.384 97.9316C381.805 98.8271 382.411 99.736 383.335 100.29L385.393 96.86ZM384.967 96.1543L381.132 88.8093L377.586 90.6607L381.421 98.0057L384.967 96.1543ZM381.108 88.7664C379.875 86.5376 378.581 83.1333 377.252 78.4629L373.405 79.5571C374.763 84.3333 376.156 88.0791 377.609 90.7036L381.108 88.7664ZM375.329 77.01H374.679V81.01H375.329V77.01ZM372.738 79.4951C374.499 86.5379 375.344 92.0536 375.344 96.105H379.344C379.344 91.5764 378.412 85.6955 376.619 78.5249L372.738 79.4951ZM375.344 96.105V105.335H379.344V96.105H375.344ZM375.344 105.335C375.344 105.701 375.302 105.909 375.272 106.006C375.245 106.094 375.247 106.026 375.356 105.928L378.032 108.902C379.105 107.936 379.344 106.516 379.344 105.335H375.344ZM375.279 106.001C375.401 105.879 375.472 105.888 375.339 105.924C375.206 105.96 374.956 106 374.549 106V110C375.699 110 377.125 109.812 378.108 108.829L375.279 106.001ZM374.549 106H367.919V110H374.549V106ZM367.919 106C367.513 106 367.251 105.961 367.098 105.92C366.946 105.88 366.966 105.856 367.047 105.928L364.371 108.902C365.367 109.799 366.734 110 367.919 110V106ZM367.123 106.001C367.233 106.111 367.227 106.176 367.195 106.061C367.162 105.943 367.124 105.715 367.124 105.335H363.124C363.124 106.472 363.323 107.857 364.294 108.829L367.123 106.001ZM367.124 105.335V64.515H363.124V105.335H367.124ZM367.124 64.515C367.124 64.1072 367.163 63.8576 367.199 63.725C367.236 63.5921 367.244 63.6627 367.123 63.7842L364.294 60.9558C363.311 61.9389 363.124 63.3642 363.124 64.515H367.124ZM367.047 63.8566C366.966 63.9291 366.946 63.905 367.098 63.8647C367.251 63.8241 367.513 63.785 367.919 63.785V59.785C366.734 59.785 365.367 59.9864 364.371 60.8834L367.047 63.8566ZM367.919 63.785H374.029V59.785H367.919V63.785ZM374.029 63.785C374.523 63.785 374.891 63.814 375.155 63.8567C375.432 63.9016 375.509 63.9487 375.476 63.9308L377.391 60.4192C376.444 59.9024 375.203 59.785 374.029 59.785V63.785ZM375.476 63.9308C375.454 63.9188 375.516 63.9479 375.647 64.0975C375.776 64.2443 375.941 64.4705 376.133 64.8021L379.594 62.7979C379.055 61.8653 378.35 60.9423 377.391 60.4192L375.476 63.9308ZM376.081 64.7076L386.806 85.7676L390.371 83.9524L379.646 62.8924L376.081 64.7076ZM390.37 85.7698L401.095 64.7748L397.533 62.9552L386.808 83.9502L390.37 85.7698ZM401.102 64.7594C401.281 64.4025 401.433 64.163 401.549 64.0119C401.67 63.8542 401.709 63.8502 401.643 63.89L399.585 60.46C398.642 61.0256 397.997 62.0258 397.525 62.9706L401.102 64.7594ZM401.571 63.9308C401.546 63.9445 401.624 63.8988 401.885 63.8553C402.135 63.8136 402.485 63.785 402.954 63.785V59.785C401.807 59.785 400.597 59.9062 399.656 60.4192L401.571 63.9308ZM402.954 63.785H409.454V59.785H402.954V63.785ZM469.786 62.37L468.372 63.7842L468.409 63.8214L468.448 63.8566L469.786 62.37ZM469.786 107.415L468.448 105.928L468.409 105.964L468.372 106.001L469.786 107.415ZM458.411 107.415L456.997 108.829L458.411 107.415ZM460.686 79.01L462.609 79.5594L463.338 77.01H460.686V79.01ZM459.971 79.01V77.01H458.494L458.06 78.4218L459.971 79.01ZM458.021 84.275L459.878 85.0178L459.878 85.0178L458.021 84.275ZM455.616 89.735L453.84 88.8162L453.832 88.8315L453.824 88.8469L455.616 89.735ZM451.976 97.08L453.719 98.0605L453.745 98.0149L453.768 97.9681L451.976 97.08ZM450.741 98.575L451.77 100.29L451.831 100.254L451.888 100.213L450.741 98.575ZM441.381 97.08L443.191 96.2284L443.173 96.191L443.154 96.1543L441.381 97.08ZM437.546 89.735L439.319 88.8093L439.308 88.7877L439.296 88.7664L437.546 89.735ZM433.516 79.01L435.44 78.4629L435.027 77.01H433.516V79.01ZM432.866 79.01V77.01H430.305L430.926 79.4951L432.866 79.01ZM434.881 107.415L433.543 105.928L433.504 105.964L433.467 106.001L434.881 107.415ZM423.896 107.415L422.482 108.829L422.519 108.866L422.558 108.902L423.896 107.415ZM423.896 62.37L422.558 60.8834L422.519 60.9186L422.482 60.9558L423.896 62.37ZM434.621 62.175L433.664 63.9308L433.664 63.9308L434.621 62.175ZM436.051 63.8L437.834 62.8924L437.809 62.8445L437.782 62.7979L436.051 63.8ZM446.776 84.86L444.994 85.7676L446.774 89.2618L448.557 85.7698L446.776 84.86ZM457.501 63.865L459.282 64.7748L459.286 64.7671L459.29 64.7594L457.501 63.865ZM458.801 62.175L457.844 60.4192L457.808 60.4389L457.772 60.46L458.801 62.175ZM467.641 63.785C468.049 63.785 468.299 63.8246 468.431 63.8608C468.564 63.897 468.494 63.9057 468.372 63.7842L471.201 60.9558C470.217 59.9727 468.792 59.785 467.641 59.785V63.785ZM468.448 63.8566C468.328 63.7478 468.328 63.6736 468.36 63.7788C468.394 63.8907 468.436 64.1207 468.436 64.515H472.436C472.436 63.3222 472.211 61.8616 471.124 60.8834L468.448 63.8566ZM468.436 64.515V105.335H472.436V64.515H468.436ZM468.436 105.335C468.436 105.701 468.395 105.909 468.365 106.006C468.337 106.094 468.34 106.026 468.448 105.928L471.124 108.902C472.198 107.936 472.436 106.516 472.436 105.335H468.436ZM468.372 106.001C468.494 105.879 468.564 105.888 468.431 105.924C468.299 105.96 468.049 106 467.641 106V110C468.792 110 470.217 109.812 471.201 108.829L468.372 106.001ZM467.641 106H460.556V110H467.641V106ZM460.556 106C460.149 106 459.899 105.96 459.766 105.924C459.633 105.888 459.704 105.879 459.826 106.001L456.997 108.829C457.98 109.812 459.406 110 460.556 110V106ZM459.826 106.001C459.936 106.111 459.93 106.176 459.898 106.061C459.865 105.943 459.826 105.715 459.826 105.335H455.826C455.826 106.472 456.025 107.857 456.997 108.829L459.826 106.001ZM459.826 105.335V96.04H455.826V105.335H459.826ZM459.826 96.04C459.826 91.612 460.732 86.1315 462.609 79.5594L458.763 78.4606C456.828 85.2352 455.826 91.108 455.826 96.04H459.826ZM460.686 77.01H459.971V81.01H460.686V77.01ZM458.06 78.4218C457.739 79.4646 457.115 81.155 456.164 83.5322L459.878 85.0178C460.834 82.6283 461.51 80.8087 461.883 79.5982L458.06 78.4218ZM456.164 83.5322C455.219 85.8954 454.446 87.6453 453.84 88.8162L457.393 90.6538C458.087 89.3114 458.917 87.4213 459.878 85.0178L456.164 83.5322ZM453.824 88.8469L450.184 96.1919L453.768 97.9681L457.408 90.6231L453.824 88.8469ZM450.233 96.0995C449.923 96.6517 449.69 96.8696 449.594 96.9365L451.888 100.213C452.659 99.6737 453.25 98.895 453.719 98.0605L450.233 96.0995ZM449.712 96.86C449.732 96.8479 449.691 96.8778 449.54 96.909C449.39 96.9399 449.168 96.965 448.856 96.965V100.965C449.837 100.965 450.888 100.819 451.77 100.29L449.712 96.86ZM448.856 96.965H444.501V100.965H448.856V96.965ZM444.501 96.965C444.162 96.965 443.92 96.939 443.756 96.9063C443.59 96.8731 443.55 96.8417 443.58 96.86L441.522 100.29C442.416 100.826 443.5 100.965 444.501 100.965V96.965ZM443.58 96.86C443.619 96.8833 443.59 96.8767 443.509 96.7736C443.428 96.6702 443.318 96.4978 443.191 96.2284L439.572 97.9316C439.993 98.8271 440.599 99.736 441.522 100.29L443.58 96.86ZM443.154 96.1543L439.319 88.8093L435.773 90.6607L439.608 98.0057L443.154 96.1543ZM439.296 88.7664C438.062 86.5376 436.768 83.1333 435.44 78.4629L431.593 79.5571C432.951 84.3333 434.344 88.0791 435.797 90.7036L439.296 88.7664ZM433.516 77.01H432.866V81.01H433.516V77.01ZM430.926 79.4951C432.687 86.5379 433.531 92.0536 433.531 96.105H437.531C437.531 91.5764 436.599 85.6955 434.807 78.5249L430.926 79.4951ZM433.531 96.105V105.335H437.531V96.105H433.531ZM433.531 105.335C433.531 105.701 433.49 105.909 433.46 106.006C433.432 106.094 433.435 106.026 433.543 105.928L436.219 108.902C437.293 107.936 437.531 106.516 437.531 105.335H433.531ZM433.467 106.001C433.589 105.879 433.659 105.888 433.526 105.924C433.394 105.96 433.144 106 432.736 106V110C433.887 110 435.312 109.812 436.296 108.829L433.467 106.001ZM432.736 106H426.106V110H432.736V106ZM426.106 106C425.701 106 425.439 105.961 425.286 105.92C425.133 105.88 425.154 105.856 425.234 105.928L422.558 108.902C423.555 109.799 424.922 110 426.106 110V106ZM425.311 106.001C425.421 106.111 425.415 106.176 425.383 106.061C425.35 105.943 425.311 105.715 425.311 105.335H421.311C421.311 106.472 421.51 107.857 422.482 108.829L425.311 106.001ZM425.311 105.335V64.515H421.311V105.335H425.311ZM425.311 64.515C425.311 64.1072 425.351 63.8576 425.387 63.725C425.423 63.5921 425.432 63.6627 425.311 63.7842L422.482 60.9558C421.499 61.9389 421.311 63.3642 421.311 64.515H425.311ZM425.234 63.8566C425.154 63.9291 425.133 63.905 425.286 63.8647C425.439 63.8241 425.701 63.785 426.106 63.785V59.785C424.922 59.785 423.555 59.9864 422.558 60.8834L425.234 63.8566ZM426.106 63.785H432.216V59.785H426.106V63.785ZM432.216 63.785C432.71 63.785 433.079 63.814 433.342 63.8567C433.62 63.9016 433.697 63.9487 433.664 63.9308L435.579 60.4192C434.632 59.9024 433.391 59.785 432.216 59.785V63.785ZM433.664 63.9308C433.642 63.9188 433.703 63.9479 433.835 64.0975C433.964 64.2443 434.128 64.4705 434.32 64.8021L437.782 62.7979C437.242 61.8653 436.538 60.9423 435.579 60.4192L433.664 63.9308ZM434.269 64.7076L444.994 85.7676L448.559 83.9524L437.834 62.8924L434.269 64.7076ZM448.557 85.7698L459.282 64.7748L455.72 62.9552L444.995 83.9502L448.557 85.7698ZM459.29 64.7594C459.469 64.4025 459.62 64.163 459.737 64.0119C459.858 63.8542 459.897 63.8502 459.83 63.89L457.772 60.46C456.83 61.0256 456.185 62.0258 455.712 62.9706L459.29 64.7594ZM459.759 63.9308C459.734 63.9445 459.812 63.8988 460.073 63.8553C460.323 63.8136 460.673 63.785 461.141 63.785V59.785C459.994 59.785 458.784 59.9062 457.844 60.4192L459.759 63.9308ZM461.141 63.785H467.641V59.785H461.141V63.785ZM522.709 105.335L520.829 106.018L520.831 106.022L522.709 105.335ZM510.294 107.415L509.265 109.13L509.289 109.144L509.314 109.158L510.294 107.415ZM508.929 105.27L510.869 104.785L510.854 104.723L510.834 104.661L508.929 105.27ZM507.434 100.59L509.339 99.9814L508.895 98.59H507.434V100.59ZM493.394 100.59V98.59H491.933L491.489 99.9814L493.394 100.59ZM491.899 105.27L493.796 105.902L493.8 105.891L493.804 105.879L491.899 105.27ZM490.404 107.415L489.375 105.7L489.349 105.716L489.323 105.733L490.404 107.415ZM478.574 105.335L480.452 106.022L480.454 106.017L478.574 105.335ZM493.524 64.125L495.404 64.8071L495.413 64.7824L495.421 64.7575L493.524 64.125ZM494.694 62.305L495.768 63.9923L495.768 63.9923L494.694 62.305ZM506.459 62.305L505.385 63.9923L505.418 64.0131L505.451 64.0326L506.459 62.305ZM507.694 63.995L509.574 63.3122L509.571 63.3036L507.694 63.995ZM502.104 82.78L500.188 83.3547L500.193 83.3689L500.197 83.383L502.104 82.78ZM501.129 78.555L499.149 78.8378L499.153 78.8654L499.158 78.8929L501.129 78.555ZM500.739 74.98L498.742 75.0799L500.739 74.98ZM500.674 73.68L502.672 73.5801L502.577 71.68H500.674V73.68ZM500.024 73.68V71.68H497.996L498.024 73.7078L500.024 73.68ZM498.789 82.715L500.697 83.3134L500.702 83.3003L500.705 83.2871L498.789 82.715ZM496.384 90.385L494.476 89.7866L493.661 92.385H496.384V90.385ZM504.509 90.385V92.385H507.239L506.416 89.782L504.509 90.385ZM520.831 106.022C520.858 106.096 520.88 106.163 520.897 106.222C520.915 106.282 520.927 106.333 520.937 106.375C520.946 106.418 520.951 106.451 520.954 106.475C520.957 106.5 520.957 106.513 520.957 106.517C520.957 106.526 520.956 106.49 520.974 106.423C520.983 106.39 520.997 106.351 521.017 106.308C521.037 106.265 521.062 106.221 521.092 106.179C521.122 106.136 521.155 106.099 521.188 106.066C521.221 106.033 521.253 106.008 521.28 105.989C521.333 105.951 521.365 105.942 521.353 105.946C521.347 105.948 521.333 105.953 521.307 105.959C521.282 105.965 521.247 105.971 521.202 105.978C521.157 105.984 521.103 105.99 521.04 105.994C520.976 105.998 520.905 106 520.824 106V110C521.949 110 523.459 109.76 524.358 108.489C525.263 107.21 524.974 105.704 524.587 104.648L520.831 106.022ZM520.824 106H513.804V110H520.824V106ZM513.804 106C512.207 106 511.488 105.792 511.275 105.672L509.314 109.158C510.487 109.818 512.108 110 513.804 110V106ZM511.323 105.7C511.288 105.679 511.055 105.526 510.869 104.785L506.989 105.755C507.324 107.094 508 108.371 509.265 109.13L511.323 105.7ZM510.834 104.661L509.339 99.9814L505.529 101.199L507.024 105.879L510.834 104.661ZM507.434 98.59H493.394V102.59H507.434V98.59ZM491.489 99.9814L489.994 104.661L493.804 105.879L495.299 101.199L491.489 99.9814ZM490.002 104.638C489.74 105.423 489.466 105.645 489.375 105.7L491.433 109.13C492.642 108.405 493.365 107.197 493.796 105.902L490.002 104.638ZM489.323 105.733C489.325 105.731 489.188 105.812 488.782 105.885C488.395 105.955 487.86 106 487.154 106V110C488.744 110 490.351 109.827 491.486 109.097L489.323 105.733ZM487.154 106H480.329V110H487.154V106ZM480.329 106C480.181 106 480.072 105.991 479.995 105.98C479.918 105.968 479.887 105.957 479.889 105.957C479.892 105.958 479.935 105.975 479.998 106.022C480.063 106.071 480.135 106.141 480.196 106.234C480.256 106.326 480.289 106.412 480.305 106.476C480.32 106.537 480.317 106.566 480.317 106.55C480.318 106.533 480.321 106.481 480.342 106.388C480.362 106.296 480.396 106.175 480.452 106.022L476.696 104.648C476.316 105.685 476.016 107.161 476.855 108.434C477.72 109.748 479.226 110 480.329 110V106ZM480.454 106.017L495.404 64.8071L491.644 63.4429L476.694 104.653L480.454 106.017ZM495.421 64.7575C495.537 64.412 495.645 64.1949 495.726 64.069C495.807 63.9443 495.832 63.9518 495.768 63.9923L493.62 60.6177C492.566 61.2886 491.983 62.4239 491.627 63.4925L495.421 64.7575ZM495.768 63.9923C495.746 64.0065 495.803 63.9648 496.007 63.9227C496.208 63.8813 496.5 63.85 496.904 63.85V59.85C495.781 59.85 494.58 60.007 493.62 60.6177L495.768 63.9923ZM496.904 63.85H504.314V59.85H496.904V63.85ZM504.314 63.85C504.691 63.85 504.963 63.8805 505.15 63.9202C505.339 63.9603 505.398 64.0005 505.385 63.9923L507.533 60.6177C506.583 60.0135 505.415 59.85 504.314 59.85V63.85ZM505.451 64.0326C505.422 64.0155 505.603 64.105 505.817 64.6864L509.571 63.3036C509.178 62.2384 508.536 61.2012 507.467 60.5774L505.451 64.0326ZM505.814 64.6778L520.829 106.018L524.589 104.652L509.574 63.3122L505.814 64.6778ZM504.02 82.2053C503.656 80.9925 503.348 79.6641 503.1 78.2171L499.158 78.8929C499.43 80.4792 499.772 81.9675 500.188 83.3547L504.02 82.2053ZM503.109 78.2722C502.895 76.7779 502.775 75.6563 502.737 74.8801L498.742 75.0799C498.789 76.037 498.929 77.2988 499.149 78.8378L503.109 78.2722ZM502.737 74.8801L502.672 73.5801L498.677 73.7799L498.742 75.0799L502.737 74.8801ZM500.674 71.68H500.024V75.68H500.674V71.68ZM498.024 73.7078C498.065 76.6309 497.679 79.4399 496.873 82.1429L500.705 83.2871C501.632 80.1834 502.07 76.9691 502.024 73.6522L498.024 73.7078ZM496.881 82.1166L494.476 89.7866L498.292 90.9834L500.697 83.3134L496.881 82.1166ZM496.384 92.385H504.509V88.385H496.384V92.385ZM506.416 89.782L504.011 82.177L500.197 83.383L502.602 90.988L506.416 89.782ZM167.955 143.435L166.469 144.773L166.539 144.851L166.617 144.922L167.955 143.435ZM167.955 188.415L169.369 189.829L169.369 189.829L167.955 188.415ZM156.32 188.415L154.834 189.753L154.904 189.831L154.982 189.902L156.32 188.415ZM155.735 171.32H157.735V169.32H155.735V171.32ZM143.125 171.32V169.32H141.125V171.32H143.125ZM142.54 188.415L143.954 189.829L143.992 189.792L144.027 189.753L142.54 188.415ZM130.84 188.415L129.354 189.753L129.424 189.831L129.502 189.902L130.84 188.415ZM130.84 143.435L129.426 142.021L129.426 142.021L130.84 143.435ZM142.54 143.435L141.054 144.773L141.089 144.812L141.126 144.849L142.54 143.435ZM143.125 159.945H141.125V161.945H143.125V159.945ZM155.735 159.945V161.945H157.735V159.945H155.735ZM156.32 143.435L154.906 142.021L156.32 143.435ZM165.875 144.785C166.241 144.785 166.449 144.826 166.546 144.856C166.634 144.884 166.566 144.881 166.469 144.773L169.442 142.097C168.476 141.024 167.057 140.785 165.875 140.785V144.785ZM166.617 144.922C166.497 144.813 166.497 144.739 166.529 144.844C166.563 144.956 166.605 145.186 166.605 145.58H170.605C170.605 144.387 170.38 142.927 169.293 141.948L166.617 144.922ZM166.605 145.58V186.27H170.605V145.58H166.605ZM166.605 186.27C166.605 186.633 166.565 186.855 166.529 186.974C166.495 187.085 166.479 187.063 166.541 187.001L169.369 189.829C170.355 188.844 170.605 187.48 170.605 186.27H166.605ZM166.541 187.001C166.651 186.89 166.716 186.896 166.601 186.928C166.484 186.962 166.255 187 165.875 187V191C167.012 191 168.398 190.801 169.369 189.829L166.541 187.001ZM165.875 187H158.465V191H165.875V187ZM158.465 187C158.088 187 157.846 186.962 157.708 186.924C157.572 186.887 157.588 186.865 157.658 186.928L154.982 189.902C155.967 190.788 157.297 191 158.465 191V187ZM157.807 187.077C157.87 187.147 157.848 187.163 157.811 187.028C157.773 186.889 157.735 186.647 157.735 186.27H153.735C153.735 187.438 153.947 188.768 154.834 189.753L157.807 187.077ZM157.735 186.27V171.32H153.735V186.27H157.735ZM155.735 169.32H143.125V173.32H155.735V169.32ZM141.125 171.32V186.27H145.125V171.32H141.125ZM141.125 186.27C141.125 186.647 141.087 186.889 141.05 187.028C141.013 187.163 140.991 187.147 141.054 187.077L144.027 189.753C144.913 188.768 145.125 187.438 145.125 186.27H141.125ZM141.126 187.001C141.248 186.879 141.318 186.888 141.185 186.924C141.053 186.96 140.803 187 140.395 187V191C141.546 191 142.971 190.812 143.954 189.829L141.126 187.001ZM140.395 187H133.05V191H140.395V187ZM133.05 187C132.645 187 132.383 186.961 132.23 186.92C132.077 186.88 132.098 186.856 132.178 186.928L129.502 189.902C130.499 190.799 131.866 191 133.05 191V187ZM132.327 187.077C132.39 187.147 132.368 187.163 132.331 187.028C132.293 186.889 132.255 186.647 132.255 186.27H128.255C128.255 187.438 128.467 188.768 129.354 189.753L132.327 187.077ZM132.255 186.27V145.58H128.255V186.27H132.255ZM132.255 145.58C132.255 145.172 132.295 144.923 132.331 144.79C132.367 144.657 132.376 144.728 132.254 144.849L129.426 142.021C128.443 143.004 128.255 144.429 128.255 145.58H132.255ZM132.254 144.849C132.182 144.922 132.155 144.904 132.282 144.866C132.415 144.827 132.659 144.785 133.05 144.785V140.785C131.827 140.785 130.424 141.023 129.426 142.021L132.254 144.849ZM133.05 144.785H140.395V140.785H133.05V144.785ZM140.395 144.785C140.79 144.785 141.02 144.828 141.132 144.862C141.237 144.893 141.162 144.894 141.054 144.773L144.027 142.097C143.049 141.01 141.588 140.785 140.395 140.785V144.785ZM141.126 144.849C141.005 144.728 141.013 144.657 141.05 144.79C141.086 144.923 141.125 145.172 141.125 145.58H145.125C145.125 144.429 144.938 143.004 143.954 142.021L141.126 144.849ZM141.125 145.58V159.945H145.125V145.58H141.125ZM143.125 161.945H155.735V157.945H143.125V161.945ZM157.735 159.945V145.58H153.735V159.945H157.735ZM157.735 145.58C157.735 145.172 157.775 144.923 157.811 144.79C157.847 144.657 157.856 144.728 157.734 144.849L154.906 142.021C153.923 143.004 153.735 144.429 153.735 145.58H157.735ZM157.734 144.849C157.673 144.911 157.651 144.895 157.762 144.862C157.88 144.826 158.102 144.785 158.465 144.785V140.785C157.256 140.785 155.891 141.036 154.906 142.021L157.734 144.849ZM158.465 144.785H165.875V140.785H158.465V144.785ZM220.893 186.335L219.013 187.018L219.015 187.022L220.893 186.335ZM208.478 188.415L207.449 190.13L207.473 190.144L207.498 190.158L208.478 188.415ZM207.113 186.27L209.053 185.785L209.038 185.723L209.018 185.661L207.113 186.27ZM205.618 181.59L207.523 180.981L207.079 179.59H205.618V181.59ZM191.578 181.59V179.59H190.118L189.673 180.981L191.578 181.59ZM190.083 186.27L191.981 186.902L191.985 186.891L191.988 186.879L190.083 186.27ZM188.588 188.415L187.559 186.7L187.533 186.716L187.507 186.733L188.588 188.415ZM176.758 186.335L178.636 187.022L178.638 187.017L176.758 186.335ZM191.708 145.125L193.588 145.807L193.597 145.782L193.606 145.757L191.708 145.125ZM192.878 143.305L193.952 144.992L193.952 144.992L192.878 143.305ZM204.643 143.305L203.569 144.992L203.602 145.013L203.635 145.033L204.643 143.305ZM205.878 144.995L207.758 144.312L207.755 144.304L205.878 144.995ZM200.288 163.78L198.373 164.355L198.377 164.369L198.381 164.383L200.288 163.78ZM199.313 159.555L197.333 159.838L197.337 159.865L197.342 159.893L199.313 159.555ZM198.923 155.98L196.926 156.08L198.923 155.98ZM198.858 154.68L200.856 154.58L200.761 152.68H198.858V154.68ZM198.208 154.68V152.68H196.18L196.208 154.708L198.208 154.68ZM196.973 163.715L198.882 164.313L198.886 164.3L198.89 164.287L196.973 163.715ZM194.568 171.385L192.66 170.787L191.845 173.385H194.568V171.385ZM202.693 171.385V173.385H205.423L204.6 170.782L202.693 171.385ZM219.015 187.022C219.042 187.096 219.064 187.163 219.081 187.222C219.099 187.282 219.112 187.333 219.121 187.375C219.13 187.418 219.135 187.451 219.138 187.475C219.141 187.5 219.141 187.513 219.141 187.517C219.141 187.526 219.14 187.49 219.158 187.423C219.168 187.39 219.181 187.351 219.201 187.308C219.222 187.265 219.247 187.221 219.277 187.179C219.307 187.136 219.339 187.099 219.372 187.066C219.405 187.033 219.437 187.008 219.464 186.989C219.518 186.951 219.549 186.942 219.537 186.946C219.532 186.948 219.517 186.953 219.491 186.959C219.466 186.965 219.431 186.971 219.386 186.978C219.341 186.984 219.287 186.99 219.224 186.994C219.16 186.998 219.089 187 219.008 187V191C220.133 191 221.643 190.76 222.542 189.489C223.447 188.21 223.158 186.704 222.771 185.648L219.015 187.022ZM219.008 187H211.988V191H219.008V187ZM211.988 187C210.391 187 209.672 186.792 209.459 186.672L207.498 190.158C208.671 190.818 210.292 191 211.988 191V187ZM209.507 186.7C209.472 186.679 209.239 186.526 209.053 185.785L205.173 186.755C205.508 188.094 206.184 189.371 207.449 190.13L209.507 186.7ZM209.018 185.661L207.523 180.981L203.713 182.199L205.208 186.879L209.018 185.661ZM205.618 179.59H191.578V183.59H205.618V179.59ZM189.673 180.981L188.178 185.661L191.988 186.879L193.483 182.199L189.673 180.981ZM188.186 185.638C187.924 186.423 187.651 186.645 187.559 186.7L189.617 190.13C190.826 189.405 191.549 188.197 191.981 186.902L188.186 185.638ZM187.507 186.733C187.51 186.731 187.372 186.812 186.966 186.885C186.579 186.955 186.044 187 185.338 187V191C186.929 191 188.535 190.827 189.67 190.097L187.507 186.733ZM185.338 187H178.513V191H185.338V187ZM178.513 187C178.365 187 178.256 186.991 178.179 186.98C178.102 186.968 178.071 186.957 178.073 186.957C178.076 186.958 178.119 186.975 178.182 187.022C178.248 187.071 178.319 187.141 178.38 187.234C178.44 187.326 178.473 187.412 178.489 187.476C178.504 187.537 178.501 187.566 178.502 187.55C178.502 187.533 178.506 187.481 178.526 187.388C178.546 187.296 178.58 187.175 178.636 187.022L174.88 185.648C174.501 186.685 174.201 188.161 175.039 189.434C175.904 190.748 177.41 191 178.513 191V187ZM178.638 187.017L193.588 145.807L189.828 144.443L174.878 185.653L178.638 187.017ZM193.606 145.757C193.721 145.412 193.83 145.195 193.911 145.069C193.991 144.944 194.016 144.952 193.952 144.992L191.804 141.618C190.75 142.289 190.167 143.424 189.811 144.493L193.606 145.757ZM193.952 144.992C193.93 145.006 193.987 144.965 194.192 144.923C194.392 144.881 194.685 144.85 195.088 144.85V140.85C193.965 140.85 192.764 141.007 191.804 141.618L193.952 144.992ZM195.088 144.85H202.498V140.85H195.088V144.85ZM202.498 144.85C202.875 144.85 203.147 144.881 203.334 144.92C203.523 144.96 203.582 145.001 203.569 144.992L205.717 141.618C204.768 141.014 203.599 140.85 202.498 140.85V144.85ZM203.635 145.033C203.606 145.015 203.787 145.105 204.002 145.686L207.755 144.304C207.362 143.238 206.72 142.201 205.651 141.577L203.635 145.033ZM203.998 145.678L219.013 187.018L222.773 185.652L207.758 144.312L203.998 145.678ZM202.204 163.205C201.84 161.992 201.533 160.664 201.284 159.217L197.342 159.893C197.614 161.479 197.956 162.968 198.373 164.355L202.204 163.205ZM201.293 159.272C201.08 157.778 200.96 156.656 200.921 155.88L196.926 156.08C196.974 157.037 197.113 158.299 197.333 159.838L201.293 159.272ZM200.921 155.88L200.856 154.58L196.861 154.78L196.926 156.08L200.921 155.88ZM198.858 152.68H198.208V156.68H198.858V152.68ZM196.208 154.708C196.249 157.631 195.864 160.44 195.057 163.143L198.89 164.287C199.816 161.183 200.254 157.969 200.208 154.652L196.208 154.708ZM195.065 163.117L192.66 170.787L196.477 171.983L198.882 164.313L195.065 163.117ZM194.568 173.385H202.693V169.385H194.568V173.385ZM204.6 170.782L202.195 163.177L198.381 164.383L200.786 171.988L204.6 170.782ZM278.169 147.14L279.541 145.685L279.541 145.685L278.169 147.14ZM278.234 170.93L276.862 169.474L276.862 169.474L278.234 170.93ZM258.084 175.155V173.155H256.084V175.155H258.084ZM257.499 188.415L258.913 189.829L258.95 189.792L258.985 189.753L257.499 188.415ZM245.799 188.415L244.312 189.753L244.383 189.831L244.461 189.902L245.799 188.415ZM245.799 143.5L244.385 142.086L244.385 142.086L245.799 143.5ZM268.094 162.48L266.68 161.066L266.68 161.066L268.094 162.48ZM268.094 155.59L266.646 156.969L266.662 156.987L266.68 157.004L268.094 155.59ZM258.084 154.225V152.225H256.084V154.225H258.084ZM258.084 163.78H256.084V165.78H258.084V163.78ZM265.949 144.85C270.674 144.85 274.215 146.161 276.797 148.595L279.541 145.685C276.056 142.399 271.451 140.85 265.949 140.85V144.85ZM276.797 148.595C279.341 150.994 280.719 154.404 280.719 159.1H284.719C284.719 153.57 283.063 149.006 279.541 145.685L276.797 148.595ZM280.719 159.1C280.719 163.757 279.361 167.121 276.862 169.474L279.605 172.386C283.087 169.106 284.719 164.583 284.719 159.1H280.719ZM276.862 169.474C274.329 171.861 270.813 173.155 266.079 173.155V177.155C271.571 177.155 276.159 175.632 279.605 172.386L276.862 169.474ZM266.079 173.155H258.084V177.155H266.079V173.155ZM256.084 175.155V186.27H260.084V175.155H256.084ZM256.084 186.27C256.084 186.647 256.046 186.889 256.008 187.028C255.971 187.163 255.949 187.147 256.012 187.077L258.985 189.753C259.872 188.768 260.084 187.438 260.084 186.27H256.084ZM256.085 187.001C256.206 186.879 256.277 186.888 256.144 186.924C256.011 186.96 255.762 187 255.354 187V191C256.505 191 257.93 190.812 258.913 189.829L256.085 187.001ZM255.354 187H248.009V191H255.354V187ZM248.009 187C247.604 187 247.341 186.961 247.188 186.92C247.036 186.88 247.056 186.856 247.137 186.928L244.461 189.902C245.458 190.799 246.825 191 248.009 191V187ZM247.285 187.077C247.348 187.147 247.327 187.163 247.29 187.028C247.252 186.889 247.214 186.647 247.214 186.27H243.214C243.214 187.438 243.426 188.768 244.312 189.753L247.285 187.077ZM247.214 186.27V145.58H243.214V186.27H247.214ZM247.214 145.58C247.214 145.2 247.252 144.972 247.285 144.854C247.318 144.739 247.323 144.804 247.213 144.914L244.385 142.086C243.413 143.058 243.214 144.443 243.214 145.58H247.214ZM247.213 144.914C247.141 144.987 247.114 144.969 247.241 144.931C247.374 144.892 247.617 144.85 248.009 144.85V140.85C246.785 140.85 245.382 141.088 244.385 142.086L247.213 144.914ZM248.009 144.85H265.949V140.85H248.009V144.85ZM264.519 165.78C266.432 165.78 268.181 165.221 269.508 163.894L266.68 161.066C266.273 161.473 265.639 161.78 264.519 161.78V165.78ZM269.508 163.894C270.812 162.59 271.394 160.9 271.394 159.035H267.394C267.394 160.03 267.109 160.637 266.68 161.066L269.508 163.894ZM271.394 159.035C271.394 157.17 270.812 155.48 269.508 154.176L266.68 157.004C267.109 157.433 267.394 158.04 267.394 159.035H271.394ZM269.542 154.211C268.221 152.824 266.461 152.225 264.519 152.225V156.225C265.61 156.225 266.233 156.536 266.646 156.969L269.542 154.211ZM264.519 152.225H258.084V156.225H264.519V152.225ZM256.084 154.225V163.78H260.084V154.225H256.084ZM258.084 165.78H264.519V161.78H258.084V165.78ZM330.82 143.695L328.954 144.413L328.964 144.439L328.974 144.464L330.82 143.695ZM330.43 145.58L328.751 144.493L328.728 144.53L328.706 144.567L330.43 145.58ZM315.415 171.125L313.691 170.112L313.415 170.581V171.125H315.415ZM314.83 188.415L316.245 189.829L316.282 189.792L316.317 189.753L314.83 188.415ZM303.13 188.415L301.644 189.753L301.714 189.831L301.792 189.902L303.13 188.415ZM302.545 171.125H304.545V170.583L304.272 170.115L302.545 171.125ZM287.595 145.58L289.322 144.57L289.299 144.531L289.275 144.493L287.595 145.58ZM287.205 143.695L289.052 144.464L289.062 144.439L289.072 144.413L287.205 143.695ZM300.27 143.24L299.483 145.078L299.505 145.088L299.528 145.097L300.27 143.24ZM302.155 145.255L303.927 144.326L303.914 144.302L303.9 144.278L302.155 145.255ZM309.11 158.515L307.339 159.444L309.086 162.774L310.871 159.464L309.11 158.515ZM316.26 145.255L314.515 144.278L314.508 144.292L314.5 144.306L316.26 145.255ZM318.08 143.24L317.338 141.383L317.315 141.392L317.293 141.402L318.08 143.24ZM329.065 144.85C329.208 144.85 329.3 144.861 329.351 144.87C329.402 144.879 329.395 144.884 329.351 144.863C329.304 144.84 329.223 144.791 329.138 144.702C329.051 144.61 328.99 144.508 328.954 144.413L332.687 142.977C332.016 141.232 330.298 140.85 329.065 140.85V144.85ZM328.974 144.464C328.944 144.393 328.928 144.32 328.924 144.256C328.919 144.193 328.926 144.156 328.927 144.151C328.928 144.148 328.922 144.175 328.895 144.236C328.868 144.296 328.823 144.382 328.751 144.493L332.11 146.666C332.737 145.696 333.254 144.337 332.667 142.926L328.974 144.464ZM328.706 144.567L313.691 170.112L317.14 172.138L332.155 146.593L328.706 144.567ZM313.415 171.125V186.27H317.415V171.125H313.415ZM313.415 186.27C313.415 186.647 313.377 186.889 313.34 187.028C313.303 187.163 313.281 187.147 313.344 187.077L316.317 189.753C317.204 188.768 317.415 187.438 317.415 186.27H313.415ZM313.416 187.001C313.538 186.879 313.608 186.888 313.475 186.924C313.343 186.96 313.093 187 312.685 187V191C313.836 191 315.261 190.812 316.245 189.829L313.416 187.001ZM312.685 187H305.34V191H312.685V187ZM305.34 187C304.935 187 304.673 186.961 304.52 186.92C304.367 186.88 304.388 186.856 304.468 186.928L301.792 189.902C302.789 190.799 304.156 191 305.34 191V187ZM304.617 187.077C304.68 187.147 304.658 187.163 304.621 187.028C304.583 186.889 304.545 186.647 304.545 186.27H300.545C300.545 187.438 300.757 188.768 301.644 189.753L304.617 187.077ZM304.545 186.27V171.125H300.545V186.27H304.545ZM304.272 170.115L289.322 144.57L285.869 146.59L300.819 172.135L304.272 170.115ZM289.275 144.493C289.202 144.382 289.157 144.296 289.131 144.236C289.104 144.175 289.098 144.148 289.099 144.151C289.1 144.156 289.107 144.193 289.102 144.256C289.097 144.32 289.081 144.393 289.052 144.464L285.359 142.926C284.771 144.337 285.288 145.696 285.916 146.666L289.275 144.493ZM289.072 144.413C289.036 144.508 288.975 144.61 288.888 144.702C288.803 144.791 288.722 144.84 288.674 144.863C288.631 144.884 288.624 144.879 288.675 144.87C288.726 144.861 288.818 144.85 288.96 144.85V140.85C287.728 140.85 286.01 141.232 285.339 142.977L289.072 144.413ZM288.96 144.85H296.76V140.85H288.96V144.85ZM296.76 144.85C297.584 144.85 298.231 144.881 298.717 144.935C298.959 144.962 299.144 144.993 299.281 145.023C299.348 145.038 299.399 145.051 299.434 145.062C299.47 145.073 299.485 145.079 299.483 145.078L301.058 141.402C300.486 141.156 299.812 141.032 299.159 140.96C298.475 140.884 297.67 140.85 296.76 140.85V144.85ZM299.528 145.097C299.509 145.089 299.595 145.119 299.769 145.305C299.942 145.49 300.16 145.786 300.41 146.232L303.9 144.278C303.225 143.071 302.31 141.902 301.013 141.383L299.528 145.097ZM300.384 146.184L307.339 159.444L310.882 157.586L303.927 144.326L300.384 146.184ZM310.871 159.464L318.021 146.204L314.5 144.306L307.35 157.566L310.871 159.464ZM318.005 146.232C318.261 145.776 318.481 145.472 318.655 145.279C318.832 145.083 318.909 145.061 318.868 145.078L317.293 141.402C316.054 141.933 315.173 143.103 314.515 144.278L318.005 146.232ZM318.823 145.097C319.078 144.995 319.894 144.85 321.59 144.85V140.85C319.907 140.85 318.383 140.965 317.338 141.383L318.823 145.097ZM321.59 144.85H329.065V140.85H321.59V144.85ZM373.318 143.5L371.831 144.838L371.902 144.916L371.98 144.987L373.318 143.5ZM361.553 154.225V152.225H359.553V154.225H361.553ZM360.903 188.415L362.317 189.829L362.317 189.829L360.903 188.415ZM349.268 188.415L347.781 189.753L347.816 189.792L347.853 189.829L349.268 188.415ZM348.683 154.225H350.683V152.225H348.683V154.225ZM336.853 153.64L335.366 154.978L335.401 155.017L335.438 155.054L336.853 153.64ZM336.853 143.5L338.267 144.914L338.304 144.877L338.339 144.838L336.853 143.5ZM371.173 144.85C371.567 144.85 371.797 144.893 371.909 144.927C372.014 144.958 371.94 144.959 371.831 144.838L374.804 142.162C373.826 141.075 372.365 140.85 371.173 140.85V144.85ZM371.98 144.987C371.871 144.889 371.869 144.821 371.896 144.909C371.926 145.006 371.968 145.214 371.968 145.58H375.968C375.968 144.399 375.729 142.979 374.656 142.013L371.98 144.987ZM371.968 145.58V151.43H375.968V145.58H371.968ZM371.968 151.43C371.968 151.822 371.926 152.065 371.886 152.198C371.849 152.325 371.831 152.298 371.903 152.226L374.732 155.054C375.73 154.057 375.968 152.654 375.968 151.43H371.968ZM371.903 152.226C372.025 152.104 372.096 152.113 371.963 152.149C371.83 152.185 371.58 152.225 371.173 152.225V156.225C372.324 156.225 373.749 156.037 374.732 155.054L371.903 152.226ZM371.173 152.225H361.553V156.225H371.173V152.225ZM359.553 154.225V186.27H363.553V154.225H359.553ZM359.553 186.27C359.553 186.633 359.512 186.855 359.476 186.974C359.443 187.085 359.427 187.063 359.488 187.001L362.317 189.829C363.302 188.844 363.553 187.48 363.553 186.27H359.553ZM359.488 187.001C359.61 186.879 359.681 186.888 359.548 186.924C359.415 186.96 359.165 187 358.758 187V191C359.908 191 361.334 190.812 362.317 189.829L359.488 187.001ZM358.758 187H351.413V191H358.758V187ZM351.413 187C351.005 187 350.755 186.96 350.623 186.924C350.49 186.888 350.56 186.879 350.682 187.001L347.853 189.829C348.837 190.812 350.262 191 351.413 191V187ZM350.754 187.077C350.817 187.147 350.795 187.163 350.758 187.028C350.721 186.889 350.683 186.647 350.683 186.27H346.683C346.683 187.438 346.894 188.768 347.781 189.753L350.754 187.077ZM350.683 186.27V154.225H346.683V186.27H350.683ZM348.683 152.225H338.998V156.225H348.683V152.225ZM338.998 152.225C338.59 152.225 338.34 152.185 338.208 152.149C338.075 152.113 338.145 152.104 338.267 152.226L335.438 155.054C336.422 156.037 337.847 156.225 338.998 156.225V152.225ZM338.339 152.302C338.412 152.383 338.388 152.403 338.347 152.251C338.307 152.098 338.268 151.835 338.268 151.43H334.268C334.268 152.614 334.469 153.981 335.366 154.978L338.339 152.302ZM338.268 151.43V145.58H334.268V151.43H338.268ZM338.268 145.58C338.268 145.2 338.306 144.972 338.339 144.854C338.372 144.739 338.377 144.804 338.267 144.914L335.438 142.086C334.467 143.058 334.268 144.443 334.268 145.58H338.268ZM338.339 144.838C338.231 144.959 338.156 144.958 338.261 144.927C338.373 144.893 338.603 144.85 338.998 144.85V140.85C337.805 140.85 336.344 141.075 335.366 142.162L338.339 144.838ZM338.998 144.85H371.173V140.85H338.998V144.85ZM420.153 143.435L418.666 144.773L418.737 144.851L418.815 144.922L420.153 143.435ZM420.153 188.415L421.567 189.829L421.567 189.829L420.153 188.415ZM408.518 188.415L407.031 189.753L407.102 189.831L407.18 189.902L408.518 188.415ZM407.933 171.32H409.933V169.32H407.933V171.32ZM395.323 171.32V169.32H393.323V171.32H395.323ZM394.738 188.415L396.152 189.829L396.189 189.792L396.224 189.753L394.738 188.415ZM383.038 188.415L381.551 189.753L381.622 189.831L381.7 189.902L383.038 188.415ZM383.038 143.435L381.624 142.021L381.624 142.021L383.038 143.435ZM394.738 143.435L393.251 144.773L393.286 144.812L393.324 144.849L394.738 143.435ZM395.323 159.945H393.323V161.945H395.323V159.945ZM407.933 159.945V161.945H409.933V159.945H407.933ZM408.518 143.435L407.104 142.021L408.518 143.435ZM418.073 144.785C418.438 144.785 418.647 144.826 418.744 144.856C418.831 144.884 418.764 144.881 418.666 144.773L421.639 142.097C420.673 141.024 419.254 140.785 418.073 140.785V144.785ZM418.815 144.922C418.694 144.813 418.694 144.739 418.726 144.844C418.76 144.956 418.803 145.186 418.803 145.58H422.803C422.803 144.387 422.578 142.927 421.491 141.948L418.815 144.922ZM418.803 145.58V186.27H422.803V145.58H418.803ZM418.803 186.27C418.803 186.633 418.762 186.855 418.726 186.974C418.693 187.085 418.677 187.063 418.739 187.001L421.567 189.829C422.552 188.844 422.803 187.48 422.803 186.27H418.803ZM418.739 187.001C418.849 186.89 418.914 186.896 418.799 186.928C418.681 186.962 418.453 187 418.073 187V191C419.21 191 420.595 190.801 421.567 189.829L418.739 187.001ZM418.073 187H410.663V191H418.073V187ZM410.663 187C410.285 187 410.044 186.962 409.905 186.924C409.77 186.887 409.786 186.865 409.856 186.928L407.18 189.902C408.165 190.788 409.495 191 410.663 191V187ZM410.004 187.077C410.067 187.147 410.046 187.163 410.009 187.028C409.971 186.889 409.933 186.647 409.933 186.27H405.933C405.933 187.438 406.145 188.768 407.031 189.753L410.004 187.077ZM409.933 186.27V171.32H405.933V186.27H409.933ZM407.933 169.32H395.323V173.32H407.933V169.32ZM393.323 171.32V186.27H397.323V171.32H393.323ZM393.323 186.27C393.323 186.647 393.285 186.889 393.247 187.028C393.21 187.163 393.188 187.147 393.251 187.077L396.224 189.753C397.111 188.768 397.323 187.438 397.323 186.27H393.323ZM393.324 187.001C393.445 186.879 393.516 186.888 393.383 186.924C393.25 186.96 393.001 187 392.593 187V191C393.744 191 395.169 190.812 396.152 189.829L393.324 187.001ZM392.593 187H385.248V191H392.593V187ZM385.248 187C384.842 187 384.58 186.961 384.427 186.92C384.275 186.88 384.295 186.856 384.376 186.928L381.7 189.902C382.696 190.799 384.064 191 385.248 191V187ZM384.524 187.077C384.587 187.147 384.565 187.163 384.529 187.028C384.491 186.889 384.453 186.647 384.453 186.27H380.453C380.453 187.438 380.665 188.768 381.551 189.753L384.524 187.077ZM384.453 186.27V145.58H380.453V186.27H384.453ZM384.453 145.58C384.453 145.172 384.492 144.923 384.529 144.79C384.565 144.657 384.573 144.728 384.452 144.849L381.624 142.021C380.64 143.004 380.453 144.429 380.453 145.58H384.453ZM384.452 144.849C384.379 144.922 384.352 144.904 384.48 144.866C384.613 144.827 384.856 144.785 385.248 144.785V140.785C384.024 140.785 382.621 141.023 381.624 142.021L384.452 144.849ZM385.248 144.785H392.593V140.785H385.248V144.785ZM392.593 144.785C392.987 144.785 393.217 144.828 393.329 144.862C393.434 144.893 393.36 144.894 393.251 144.773L396.224 142.097C395.246 141.01 393.786 140.785 392.593 140.785V144.785ZM393.324 144.849C393.202 144.728 393.211 144.657 393.247 144.79C393.283 144.923 393.323 145.172 393.323 145.58H397.323C397.323 144.429 397.135 143.004 396.152 142.021L393.324 144.849ZM393.323 145.58V159.945H397.323V145.58H393.323ZM395.323 161.945H407.933V157.945H395.323V161.945ZM409.933 159.945V145.58H405.933V159.945H409.933ZM409.933 145.58C409.933 145.172 409.972 144.923 410.009 144.79C410.045 144.657 410.053 144.728 409.932 144.849L407.104 142.021C406.12 143.004 405.933 144.429 405.933 145.58H409.933ZM409.932 144.849C409.87 144.911 409.848 144.895 409.959 144.862C410.078 144.826 410.3 144.785 410.663 144.785V140.785C409.453 140.785 408.089 141.036 407.104 142.021L409.932 144.849ZM410.663 144.785H418.073V140.785H410.663V144.785ZM435.976 146.75L437.334 148.218L437.334 148.218L435.976 146.75ZM465.486 146.75L464.118 148.209L464.127 148.218L464.137 148.227L465.486 146.75ZM465.486 185.165L466.844 186.633L466.844 186.633L465.486 185.165ZM435.976 185.165L434.608 186.624L434.617 186.633L434.627 186.642L435.976 185.165ZM455.996 154.875L454.664 156.367L454.692 156.392L454.721 156.416L455.996 154.875ZM445.466 154.875L446.767 156.394L446.772 156.39L445.466 154.875ZM445.466 177.04L444.134 178.532L444.162 178.557L444.191 178.581L445.466 177.04ZM455.996 177.04L457.297 178.559L457.302 178.555L455.996 177.04ZM432.776 160.075C432.776 154.834 434.358 150.971 437.334 148.218L434.618 145.282C430.66 148.943 428.776 153.963 428.776 160.075H432.776ZM437.334 148.218C440.366 145.41 444.759 143.875 450.796 143.875V139.875C444.093 139.875 438.605 141.59 434.617 145.282L437.334 148.218ZM450.796 143.875C456.787 143.875 461.131 145.409 464.118 148.209L466.854 145.291C462.907 141.591 457.458 139.875 450.796 139.875V143.875ZM464.137 148.227C467.152 150.981 468.751 154.842 468.751 160.075H472.751C472.751 153.955 470.84 148.932 466.835 145.273L464.137 148.227ZM468.751 160.075V171.775H472.751V160.075H468.751ZM468.751 171.775C468.751 177.008 467.152 180.897 464.127 183.697L466.844 186.633C470.839 182.933 472.751 177.896 472.751 171.775H468.751ZM464.128 183.697C461.141 186.459 456.793 187.975 450.796 187.975V191.975C457.451 191.975 462.897 190.284 466.844 186.633L464.128 183.697ZM450.796 187.975C444.752 187.975 440.356 186.458 437.325 183.688L434.627 186.642C438.615 190.286 444.099 191.975 450.796 191.975V187.975ZM437.344 183.706C434.358 180.907 432.776 177.015 432.776 171.775H428.776C428.776 177.888 430.66 182.923 434.608 186.624L437.344 183.706ZM432.776 171.775V160.075H428.776V171.775H432.776ZM459.881 159.49C459.881 157.019 459.098 154.846 457.271 153.334L454.721 156.416C455.407 156.984 455.881 157.888 455.881 159.49H459.881ZM457.328 153.383C455.627 151.865 453.351 151.25 450.796 151.25V155.25C452.747 155.25 453.937 155.718 454.664 156.367L457.328 153.383ZM450.796 151.25C448.203 151.25 445.898 151.862 444.16 153.36L446.772 156.39C447.547 155.722 448.795 155.25 450.796 155.25V151.25ZM444.164 153.356C442.391 154.876 441.646 157.042 441.646 159.49H445.646C445.646 157.865 446.113 156.954 446.767 156.394L444.164 153.356ZM441.646 159.49V172.36H445.646V159.49H441.646ZM441.646 172.36C441.646 174.812 442.392 176.977 444.134 178.532L446.798 175.548C446.112 174.936 445.646 173.981 445.646 172.36H441.646ZM444.191 178.581C445.928 180.018 448.221 180.6 450.796 180.6V176.6C448.777 176.6 447.517 176.142 446.741 175.499L444.191 178.581ZM450.796 180.6C453.333 180.6 455.597 180.016 457.297 178.559L454.694 175.521C453.967 176.144 452.765 176.6 450.796 176.6V180.6ZM457.302 178.555C459.098 177.007 459.881 174.834 459.881 172.36H455.881C455.881 173.959 455.407 174.907 454.69 175.525L457.302 178.555ZM459.881 172.36V159.49H455.881V172.36H459.881ZM519.087 143.5L517.601 144.838L517.671 144.916L517.749 144.987L519.087 143.5ZM519.087 188.415L520.502 189.829L520.502 189.829L519.087 188.415ZM506.997 187.7L505.32 188.79L505.32 188.79L506.997 187.7ZM496.987 172.295L495.297 173.364L495.304 173.375L495.31 173.385L496.987 172.295ZM493.802 166.38L491.948 167.13L491.956 167.149L491.964 167.168L493.802 166.38ZM491.267 158.905L493.182 158.328L492.753 156.905H491.267V158.905ZM490.747 158.905V156.905H488.245L488.796 159.346L490.747 158.905ZM491.982 164.625L490.018 165.003L490.018 165.003L491.982 164.625ZM492.567 169.305L490.575 169.478L490.577 169.502L490.58 169.526L492.567 169.305ZM492.242 188.415L490.828 187.001L490.828 187.001L492.242 188.415ZM481.322 188.415L479.836 189.753L479.906 189.831L479.984 189.902L481.322 188.415ZM481.322 143.5L479.908 142.086L479.908 142.086L481.322 143.5ZM493.932 144.15L495.616 143.071L495.609 143.06L493.932 144.15ZM504.592 160.79L502.908 161.869L502.918 161.884L502.928 161.899L504.592 160.79ZM506.412 163.91L504.623 164.804L504.623 164.804L506.412 163.91ZM507.582 166.51L505.71 167.212L505.728 167.262L505.75 167.312L507.582 166.51ZM508.752 169.435L510.622 168.726L510.622 168.726L508.752 169.435ZM510.052 172.685L508.214 173.473L508.734 174.685H510.052V172.685ZM510.572 172.685V174.685H513.276L512.485 172.1L510.572 172.685ZM508.232 164.04L506.267 164.409L506.27 164.428L506.274 164.448L508.232 164.04ZM508.232 143.5L509.647 144.914L509.684 144.877L509.719 144.838L508.232 143.5ZM517.007 144.85C517.373 144.85 517.581 144.891 517.678 144.921C517.766 144.949 517.698 144.946 517.601 144.838L520.574 142.162C519.608 141.089 518.189 140.85 517.007 140.85V144.85ZM517.749 144.987C517.641 144.889 517.638 144.821 517.666 144.909C517.696 145.006 517.737 145.214 517.737 145.58H521.737C521.737 144.399 521.499 142.979 520.425 142.013L517.749 144.987ZM517.737 145.58V186.27H521.737V145.58H517.737ZM517.737 186.27C517.737 186.633 517.697 186.855 517.661 186.974C517.627 187.085 517.611 187.063 517.673 187.001L520.502 189.829C521.487 188.844 521.737 187.48 521.737 186.27H517.737ZM517.673 187.001C517.783 186.89 517.848 186.896 517.733 186.928C517.616 186.962 517.387 187 517.007 187V191C518.144 191 519.53 190.801 520.502 189.829L517.673 187.001ZM517.007 187H509.662V191H517.007V187ZM509.662 187C508.989 187 508.8 186.803 508.674 186.61L505.32 188.79C506.322 190.33 507.909 191 509.662 191V187ZM508.674 186.61L498.664 171.205L495.31 173.385L505.32 188.79L508.674 186.61ZM498.677 171.226C497.377 169.169 496.369 167.293 495.641 165.592L491.964 167.168C492.795 169.107 493.911 171.174 495.297 173.364L498.677 171.226ZM495.656 165.63C494.953 163.892 494.128 161.466 493.182 158.328L489.352 159.482C490.313 162.67 491.179 165.228 491.948 167.13L495.656 165.63ZM491.267 156.905H490.747V160.905H491.267V156.905ZM488.796 159.346C489.403 162.032 489.808 163.911 490.018 165.003L493.946 164.247C493.723 163.086 493.305 161.151 492.698 158.464L488.796 159.346ZM490.018 165.003C490.216 166.03 490.404 167.511 490.575 169.478L494.56 169.132C494.384 167.112 494.182 165.473 493.946 164.247L490.018 165.003ZM490.58 169.526C490.787 171.391 490.892 173.44 490.892 175.675H494.892C494.892 173.317 494.781 171.119 494.555 169.084L490.58 169.526ZM490.892 175.675V186.27H494.892V175.675H490.892ZM490.892 186.27C490.892 186.633 490.852 186.855 490.816 186.974C490.782 187.085 490.766 187.063 490.828 187.001L493.657 189.829C494.642 188.844 494.892 187.48 494.892 186.27H490.892ZM490.828 187.001C490.95 186.879 491.02 186.888 490.887 186.924C490.755 186.96 490.505 187 490.097 187V191C491.248 191 492.673 190.812 493.657 189.829L490.828 187.001ZM490.097 187H483.532V191H490.097V187ZM483.532 187C483.127 187 482.865 186.961 482.712 186.92C482.559 186.88 482.58 186.856 482.66 186.928L479.984 189.902C480.981 190.799 482.348 191 483.532 191V187ZM482.809 187.077C482.872 187.147 482.85 187.163 482.813 187.028C482.775 186.889 482.737 186.647 482.737 186.27H478.737C478.737 187.438 478.949 188.768 479.836 189.753L482.809 187.077ZM482.737 186.27V145.58H478.737V186.27H482.737ZM482.737 145.58C482.737 145.2 482.776 144.972 482.809 144.854C482.841 144.739 482.847 144.804 482.737 144.914L479.908 142.086C478.936 143.058 478.737 144.443 478.737 145.58H482.737ZM482.737 144.914C482.664 144.987 482.637 144.969 482.764 144.931C482.897 144.892 483.141 144.85 483.532 144.85V140.85C482.309 140.85 480.906 141.088 479.908 142.086L482.737 144.914ZM483.532 144.85H491.202V140.85H483.532V144.85ZM491.202 144.85C491.95 144.85 492.144 145.069 492.255 145.24L495.609 143.06C494.594 141.498 492.968 140.85 491.202 140.85V144.85ZM492.248 145.229L502.908 161.869L506.276 159.711L495.616 143.071L492.248 145.229ZM502.928 161.899C503.579 162.875 504.143 163.844 504.623 164.804L508.201 163.016C507.641 161.896 506.992 160.785 506.256 159.681L502.928 161.899ZM504.623 164.804C505.128 165.813 505.484 166.61 505.71 167.212L509.455 165.808C509.161 165.023 508.737 164.087 508.201 163.016L504.623 164.804ZM505.75 167.312C506.034 167.96 506.41 168.899 506.882 170.144L510.622 168.726C510.141 167.458 509.738 166.447 509.415 165.708L505.75 167.312ZM506.882 170.144C507.366 171.419 507.81 172.53 508.214 173.473L511.891 171.897C511.515 171.02 511.092 169.965 510.622 168.726L506.882 170.144ZM510.052 174.685H510.572V170.685H510.052V174.685ZM512.485 172.1C511.364 168.436 510.605 165.623 510.19 163.632L506.274 164.448C506.726 166.617 507.527 169.567 508.66 173.27L512.485 172.1ZM510.198 163.671C509.839 161.755 509.647 159.289 509.647 156.24H505.647C505.647 159.431 505.846 162.165 506.267 164.409L510.198 163.671ZM509.647 156.24V145.58H505.647V156.24H509.647ZM509.647 145.58C509.647 145.2 509.686 144.972 509.719 144.854C509.751 144.739 509.757 144.804 509.647 144.914L506.818 142.086C505.846 143.058 505.647 144.443 505.647 145.58H509.647ZM509.719 144.838C509.61 144.959 509.536 144.958 509.641 144.927C509.753 144.893 509.983 144.85 510.377 144.85V140.85C509.185 140.85 507.724 141.075 506.746 142.162L509.719 144.838ZM510.377 144.85H517.007V140.85H510.377V144.85Z" fill="#275C87"/>
<path d="M14.3374 198.186V242.244L55.5827 266.066V221.912L55.5181 221.944L14.3374 198.186V198.186Z" fill="#C23D36"/>
<path d="M11.0835 196.3L55.5182 221.944L55.5829 221.912L55.5202 210.96L11.0835 185.375V196.3Z" fill="#C23D36"/>
<path d="M55.583 221.912V266.066L103.196 238.559V194.437L55.583 221.912Z" fill="#D64A43"/>
<path d="M55.5832 221.912L106.305 192.635V181.64L55.5205 210.96L55.5832 221.912Z" fill="#D64A43"/>
<path d="M11.0835 185.304L61.8683 155.984L106.305 181.639L55.5202 210.96L11.0835 185.304Z" fill="#DA5D57"/>
<path d="M55.5183 222.079L14.2729 198.256V201.909L55.5183 225.732V222.079Z" fill="#AB3630"/>
<path d="M55.5186 222.079V225.732L103.132 198.257V194.604L55.5186 222.079Z" fill="#B53933"/>
<path d="M103.215 230.665C99.7958 236.586 99.769 236.672 99.769 240.611C105.738 239.143 103.326 235.399 103.215 230.665Z" fill="#CCCCCC"/>
<path d="M103.359 183.414C103.732 184.781 104.498 186.34 106.43 189.685C106.507 186.39 107.6 183.542 106.305 181.64L103.359 183.414Z" fill="#B4B4B4"/>
<path d="M103.359 183.414L106.305 181.639C105.739 180.809 104.785 180.175 102.971 179.729C102.971 181.443 103.072 182.361 103.359 183.414Z" fill="#CCCCCC"/>
<path d="M55.5186 210.954L49.1831 207.302C50.7701 211.883 53.1444 214.187 55.5186 214.187V210.954Z" fill="#A3A3A3"/>
<path d="M55.5186 210.954V214.187C57.8928 214.187 60.267 211.883 61.854 207.302L55.5186 210.954Z" fill="#BCBCBC"/>
<path d="M49.1831 207.302L55.5186 210.954L61.8541 207.302C57.622 205.22 53.4152 205.031 49.1831 207.302Z" fill="#CCCCCC"/>
<path d="M57.3184 158.593L61.9317 155.933L66.545 158.593C63.4634 160.108 60.4 160.246 57.3184 158.593V158.593Z" fill="#CCCCCC"/>
<path d="M74.5645 199.965V210.96L90.4347 201.797V190.802L74.5645 199.965Z" fill="#9F2E2E"/>
<path d="M77.7388 201.797V209.128L87.2609 203.63V196.3L77.7388 201.797Z" fill="#CCCCCC"/>
<path d="M87.2607 203.63V218.29L74.5645 225.62V210.96L87.2607 203.63Z" fill="#9F2E2E"/>
<path d="M55.5186 221.818V222.663L103.132 195.187V194.343L55.5186 221.818Z" fill="#CCCCCC"/>
<path d="M77.7388 212.793V220.123L84.0869 216.458V209.128L77.7388 212.793Z" fill="#B3B3B3"/>
<path d="M55.5183 221.818L14.2729 197.996V198.84L55.5183 222.663V221.818Z" fill="#CCCCCC"/>
<path d="M15.1597 187.675L11.0986 185.254L15.2166 182.844C17.5278 184.461 17.7209 186.065 15.1596 187.675H15.1597Z" fill="#CCCCCC"/>
<path d="M11.0654 185.25L11.0758 187.318C11.9134 188.812 14.2622 188.185 15.2242 187.649L11.0654 185.25Z" fill="#999999"/>
</g>
<defs>
<linearGradient id="paint0_linear" x1="174" y1="66.5" x2="648" y2="197.5" gradientUnits="userSpaceOnUse">
<stop stop-color="#96DD9F"/>
<stop offset="1" stop-color="#ABE5B2"/>
</linearGradient>
<clipPath id="clip0">
<rect width="770" height="270" fill="white"/>
</clipPath>
</defs>
</svg>
